<mxfile host="Electron" agent="Mozilla/5.0 (Windows NT 10.0; Win64; x64) AppleWebKit/537.36 (KHTML, like Gecko) draw.io/27.0.9 Chrome/134.0.6998.205 Electron/35.4.0 Safari/537.36" version="27.0.9">
  <diagram name="第 1 页" id="AJGvHsSvA0mJsEQw0vF8">
    <mxGraphModel dx="2951" dy="1716" grid="1" gridSize="10" guides="1" tooltips="1" connect="1" arrows="1" fold="1" page="1" pageScale="1" pageWidth="1169" pageHeight="1654" math="0" shadow="0">
      <root>
        <mxCell id="0" />
        <mxCell id="1" parent="0" />
        <mxCell id="Efuom8H8bGFNNsh-Mxzv-201" value="" style="rounded=0;whiteSpace=wrap;html=1;fillColor=#d5e8d4;strokeColor=#82b366;" vertex="1" parent="1">
          <mxGeometry x="130" y="649" width="750" height="921" as="geometry" />
        </mxCell>
        <mxCell id="Efuom8H8bGFNNsh-Mxzv-1" value="" style="shape=table;startSize=0;container=1;collapsible=0;childLayout=tableLayout;fixedRows=1;rowLines=0;fontStyle=0;strokeColor=#6c8ebf;fontSize=14;fillColor=none;" vertex="1" parent="1">
          <mxGeometry x="200" y="149" width="610" height="461.0000000000002" as="geometry" />
        </mxCell>
        <mxCell id="Efuom8H8bGFNNsh-Mxzv-2" value="" style="shape=tableRow;horizontal=0;startSize=0;swimlaneHead=0;swimlaneBody=0;top=0;left=0;bottom=0;right=0;collapsible=0;dropTarget=0;fillColor=none;points=[[0,0.5],[1,0.5]];portConstraint=eastwest;strokeColor=inherit;fontSize=14;" vertex="1" parent="Efuom8H8bGFNNsh-Mxzv-1">
          <mxGeometry width="610" height="41" as="geometry" />
        </mxCell>
        <mxCell id="Efuom8H8bGFNNsh-Mxzv-3" value="&lt;b&gt;创建cdev&lt;/b&gt;" style="shape=partialRectangle;html=1;whiteSpace=wrap;connectable=0;fillColor=none;top=0;left=0;bottom=0;right=0;overflow=hidden;pointerEvents=1;strokeColor=inherit;fontSize=14;" vertex="1" parent="Efuom8H8bGFNNsh-Mxzv-2">
          <mxGeometry width="120" height="41" as="geometry">
            <mxRectangle width="120" height="41" as="alternateBounds" />
          </mxGeometry>
        </mxCell>
        <mxCell id="Efuom8H8bGFNNsh-Mxzv-4" value="" style="shape=partialRectangle;html=1;whiteSpace=wrap;connectable=0;fillColor=none;top=0;left=0;bottom=0;right=0;align=left;spacingLeft=6;overflow=hidden;strokeColor=inherit;fontSize=14;" vertex="1" parent="Efuom8H8bGFNNsh-Mxzv-2">
          <mxGeometry x="120" width="490" height="41" as="geometry">
            <mxRectangle width="490" height="41" as="alternateBounds" />
          </mxGeometry>
        </mxCell>
        <mxCell id="Efuom8H8bGFNNsh-Mxzv-23" value="" style="shape=tableRow;horizontal=0;startSize=0;swimlaneHead=0;swimlaneBody=0;top=0;left=0;bottom=0;right=0;collapsible=0;dropTarget=0;fillColor=none;points=[[0,0.5],[1,0.5]];portConstraint=eastwest;strokeColor=inherit;fontSize=14;" vertex="1" parent="Efuom8H8bGFNNsh-Mxzv-1">
          <mxGeometry y="41" width="610" height="40" as="geometry" />
        </mxCell>
        <mxCell id="Efuom8H8bGFNNsh-Mxzv-24" value="&lt;b&gt;申请设备号&lt;/b&gt;" style="shape=partialRectangle;html=1;whiteSpace=wrap;connectable=0;fillColor=none;top=0;left=0;bottom=0;right=0;overflow=hidden;strokeColor=inherit;fontSize=14;" vertex="1" parent="Efuom8H8bGFNNsh-Mxzv-23">
          <mxGeometry width="120" height="40" as="geometry">
            <mxRectangle width="120" height="40" as="alternateBounds" />
          </mxGeometry>
        </mxCell>
        <mxCell id="Efuom8H8bGFNNsh-Mxzv-25" value="" style="shape=partialRectangle;html=1;whiteSpace=wrap;connectable=0;fillColor=none;top=0;left=0;bottom=0;right=0;align=left;spacingLeft=6;overflow=hidden;strokeColor=inherit;fontSize=14;" vertex="1" parent="Efuom8H8bGFNNsh-Mxzv-23">
          <mxGeometry x="120" width="490" height="40" as="geometry">
            <mxRectangle width="490" height="40" as="alternateBounds" />
          </mxGeometry>
        </mxCell>
        <mxCell id="Efuom8H8bGFNNsh-Mxzv-32" value="" style="shape=tableRow;horizontal=0;startSize=0;swimlaneHead=0;swimlaneBody=0;top=0;left=0;bottom=0;right=0;collapsible=0;dropTarget=0;fillColor=none;points=[[0,0.5],[1,0.5]];portConstraint=eastwest;strokeColor=inherit;fontSize=14;" vertex="1" parent="Efuom8H8bGFNNsh-Mxzv-1">
          <mxGeometry y="81" width="610" height="40" as="geometry" />
        </mxCell>
        <mxCell id="Efuom8H8bGFNNsh-Mxzv-33" value="&lt;b&gt;实现fops&lt;/b&gt;" style="shape=partialRectangle;html=1;whiteSpace=wrap;connectable=0;fillColor=none;top=0;left=0;bottom=0;right=0;overflow=hidden;strokeColor=inherit;fontSize=14;" vertex="1" parent="Efuom8H8bGFNNsh-Mxzv-32">
          <mxGeometry width="120" height="40" as="geometry">
            <mxRectangle width="120" height="40" as="alternateBounds" />
          </mxGeometry>
        </mxCell>
        <mxCell id="Efuom8H8bGFNNsh-Mxzv-34" value="" style="shape=partialRectangle;html=1;whiteSpace=wrap;connectable=0;fillColor=none;top=0;left=0;bottom=0;right=0;align=left;spacingLeft=6;overflow=hidden;strokeColor=inherit;fontSize=14;" vertex="1" parent="Efuom8H8bGFNNsh-Mxzv-32">
          <mxGeometry x="120" width="490" height="40" as="geometry">
            <mxRectangle width="490" height="40" as="alternateBounds" />
          </mxGeometry>
        </mxCell>
        <mxCell id="Efuom8H8bGFNNsh-Mxzv-35" value="" style="shape=tableRow;horizontal=0;startSize=0;swimlaneHead=0;swimlaneBody=0;top=0;left=0;bottom=0;right=0;collapsible=0;dropTarget=0;fillColor=none;points=[[0,0.5],[1,0.5]];portConstraint=eastwest;strokeColor=inherit;fontSize=14;" vertex="1" parent="Efuom8H8bGFNNsh-Mxzv-1">
          <mxGeometry y="121" width="610" height="40" as="geometry" />
        </mxCell>
        <mxCell id="Efuom8H8bGFNNsh-Mxzv-36" value="&lt;b&gt;初始化cdev&lt;/b&gt;" style="shape=partialRectangle;html=1;whiteSpace=wrap;connectable=0;fillColor=none;top=0;left=0;bottom=0;right=0;overflow=hidden;strokeColor=inherit;fontSize=14;" vertex="1" parent="Efuom8H8bGFNNsh-Mxzv-35">
          <mxGeometry width="120" height="40" as="geometry">
            <mxRectangle width="120" height="40" as="alternateBounds" />
          </mxGeometry>
        </mxCell>
        <mxCell id="Efuom8H8bGFNNsh-Mxzv-37" value="" style="shape=partialRectangle;html=1;whiteSpace=wrap;connectable=0;fillColor=none;top=0;left=0;bottom=0;right=0;align=left;spacingLeft=6;overflow=hidden;strokeColor=inherit;fontSize=14;" vertex="1" parent="Efuom8H8bGFNNsh-Mxzv-35">
          <mxGeometry x="120" width="490" height="40" as="geometry">
            <mxRectangle width="490" height="40" as="alternateBounds" />
          </mxGeometry>
        </mxCell>
        <mxCell id="Efuom8H8bGFNNsh-Mxzv-38" value="" style="shape=tableRow;horizontal=0;startSize=0;swimlaneHead=0;swimlaneBody=0;top=0;left=0;bottom=0;right=0;collapsible=0;dropTarget=0;fillColor=none;points=[[0,0.5],[1,0.5]];portConstraint=eastwest;strokeColor=inherit;fontSize=14;" vertex="1" parent="Efuom8H8bGFNNsh-Mxzv-1">
          <mxGeometry y="161" width="610" height="40" as="geometry" />
        </mxCell>
        <mxCell id="Efuom8H8bGFNNsh-Mxzv-39" value="&lt;b&gt;注册cdev&lt;/b&gt;" style="shape=partialRectangle;html=1;whiteSpace=wrap;connectable=0;fillColor=none;top=0;left=0;bottom=0;right=0;overflow=hidden;strokeColor=inherit;fontSize=14;" vertex="1" parent="Efuom8H8bGFNNsh-Mxzv-38">
          <mxGeometry width="120" height="40" as="geometry">
            <mxRectangle width="120" height="40" as="alternateBounds" />
          </mxGeometry>
        </mxCell>
        <mxCell id="Efuom8H8bGFNNsh-Mxzv-40" value="" style="shape=partialRectangle;html=1;whiteSpace=wrap;connectable=0;fillColor=none;top=0;left=0;bottom=0;right=0;align=left;spacingLeft=6;overflow=hidden;strokeColor=inherit;fontSize=14;" vertex="1" parent="Efuom8H8bGFNNsh-Mxzv-38">
          <mxGeometry x="120" width="490" height="40" as="geometry">
            <mxRectangle width="490" height="40" as="alternateBounds" />
          </mxGeometry>
        </mxCell>
        <mxCell id="Efuom8H8bGFNNsh-Mxzv-41" value="" style="shape=tableRow;horizontal=0;startSize=0;swimlaneHead=0;swimlaneBody=0;top=0;left=0;bottom=0;right=0;collapsible=0;dropTarget=0;fillColor=none;points=[[0,0.5],[1,0.5]];portConstraint=eastwest;strokeColor=inherit;fontSize=14;" vertex="1" parent="Efuom8H8bGFNNsh-Mxzv-1">
          <mxGeometry y="201" width="610" height="40" as="geometry" />
        </mxCell>
        <mxCell id="Efuom8H8bGFNNsh-Mxzv-42" value="&lt;b&gt;创建设备类&lt;/b&gt;" style="shape=partialRectangle;html=1;whiteSpace=wrap;connectable=0;fillColor=none;top=0;left=0;bottom=0;right=0;overflow=hidden;strokeColor=inherit;fontSize=14;" vertex="1" parent="Efuom8H8bGFNNsh-Mxzv-41">
          <mxGeometry width="120" height="40" as="geometry">
            <mxRectangle width="120" height="40" as="alternateBounds" />
          </mxGeometry>
        </mxCell>
        <mxCell id="Efuom8H8bGFNNsh-Mxzv-43" value="" style="shape=partialRectangle;html=1;whiteSpace=wrap;connectable=0;fillColor=none;top=0;left=0;bottom=0;right=0;align=left;spacingLeft=6;overflow=hidden;strokeColor=inherit;fontSize=14;" vertex="1" parent="Efuom8H8bGFNNsh-Mxzv-41">
          <mxGeometry x="120" width="490" height="40" as="geometry">
            <mxRectangle width="490" height="40" as="alternateBounds" />
          </mxGeometry>
        </mxCell>
        <mxCell id="Efuom8H8bGFNNsh-Mxzv-44" value="" style="shape=tableRow;horizontal=0;startSize=0;swimlaneHead=0;swimlaneBody=0;top=0;left=0;bottom=0;right=0;collapsible=0;dropTarget=0;fillColor=none;points=[[0,0.5],[1,0.5]];portConstraint=eastwest;strokeColor=inherit;fontSize=14;" vertex="1" parent="Efuom8H8bGFNNsh-Mxzv-1">
          <mxGeometry y="241" width="610" height="60" as="geometry" />
        </mxCell>
        <mxCell id="Efuom8H8bGFNNsh-Mxzv-45" value="&lt;b&gt;创建设备节点&lt;/b&gt;" style="shape=partialRectangle;html=1;whiteSpace=wrap;connectable=0;fillColor=none;top=0;left=0;bottom=0;right=0;overflow=hidden;strokeColor=inherit;fontSize=14;" vertex="1" parent="Efuom8H8bGFNNsh-Mxzv-44">
          <mxGeometry width="120" height="60" as="geometry">
            <mxRectangle width="120" height="60" as="alternateBounds" />
          </mxGeometry>
        </mxCell>
        <mxCell id="Efuom8H8bGFNNsh-Mxzv-46" value="" style="shape=partialRectangle;html=1;whiteSpace=wrap;connectable=0;fillColor=none;top=0;left=0;bottom=0;right=0;align=left;spacingLeft=6;overflow=hidden;strokeColor=inherit;fontSize=14;" vertex="1" parent="Efuom8H8bGFNNsh-Mxzv-44">
          <mxGeometry x="120" width="490" height="60" as="geometry">
            <mxRectangle width="490" height="60" as="alternateBounds" />
          </mxGeometry>
        </mxCell>
        <mxCell id="Efuom8H8bGFNNsh-Mxzv-50" value="" style="shape=tableRow;horizontal=0;startSize=0;swimlaneHead=0;swimlaneBody=0;top=0;left=0;bottom=0;right=0;collapsible=0;dropTarget=0;fillColor=none;points=[[0,0.5],[1,0.5]];portConstraint=eastwest;strokeColor=inherit;fontSize=14;" vertex="1" parent="Efuom8H8bGFNNsh-Mxzv-1">
          <mxGeometry y="301" width="610" height="40" as="geometry" />
        </mxCell>
        <mxCell id="Efuom8H8bGFNNsh-Mxzv-51" value="&lt;b&gt;注销 设备节点&lt;/b&gt;" style="shape=partialRectangle;html=1;whiteSpace=wrap;connectable=0;fillColor=none;top=0;left=0;bottom=0;right=0;overflow=hidden;strokeColor=inherit;fontSize=14;" vertex="1" parent="Efuom8H8bGFNNsh-Mxzv-50">
          <mxGeometry width="120" height="40" as="geometry">
            <mxRectangle width="120" height="40" as="alternateBounds" />
          </mxGeometry>
        </mxCell>
        <mxCell id="Efuom8H8bGFNNsh-Mxzv-52" value="" style="shape=partialRectangle;html=1;whiteSpace=wrap;connectable=0;fillColor=none;top=0;left=0;bottom=0;right=0;align=left;spacingLeft=6;overflow=hidden;strokeColor=inherit;fontSize=14;" vertex="1" parent="Efuom8H8bGFNNsh-Mxzv-50">
          <mxGeometry x="120" width="490" height="40" as="geometry">
            <mxRectangle width="490" height="40" as="alternateBounds" />
          </mxGeometry>
        </mxCell>
        <mxCell id="Efuom8H8bGFNNsh-Mxzv-56" value="" style="shape=tableRow;horizontal=0;startSize=0;swimlaneHead=0;swimlaneBody=0;top=0;left=0;bottom=0;right=0;collapsible=0;dropTarget=0;fillColor=none;points=[[0,0.5],[1,0.5]];portConstraint=eastwest;strokeColor=inherit;fontSize=14;" vertex="1" parent="Efuom8H8bGFNNsh-Mxzv-1">
          <mxGeometry y="341" width="610" height="40" as="geometry" />
        </mxCell>
        <mxCell id="Efuom8H8bGFNNsh-Mxzv-57" value="&lt;b&gt;注销 设备类&lt;/b&gt;" style="shape=partialRectangle;html=1;whiteSpace=wrap;connectable=0;fillColor=none;top=0;left=0;bottom=0;right=0;overflow=hidden;strokeColor=inherit;fontSize=14;" vertex="1" parent="Efuom8H8bGFNNsh-Mxzv-56">
          <mxGeometry width="120" height="40" as="geometry">
            <mxRectangle width="120" height="40" as="alternateBounds" />
          </mxGeometry>
        </mxCell>
        <mxCell id="Efuom8H8bGFNNsh-Mxzv-58" value="" style="shape=partialRectangle;html=1;whiteSpace=wrap;connectable=0;fillColor=none;top=0;left=0;bottom=0;right=0;align=left;spacingLeft=6;overflow=hidden;strokeColor=inherit;fontSize=14;" vertex="1" parent="Efuom8H8bGFNNsh-Mxzv-56">
          <mxGeometry x="120" width="490" height="40" as="geometry">
            <mxRectangle width="490" height="40" as="alternateBounds" />
          </mxGeometry>
        </mxCell>
        <mxCell id="Efuom8H8bGFNNsh-Mxzv-59" value="" style="shape=tableRow;horizontal=0;startSize=0;swimlaneHead=0;swimlaneBody=0;top=0;left=0;bottom=0;right=0;collapsible=0;dropTarget=0;fillColor=none;points=[[0,0.5],[1,0.5]];portConstraint=eastwest;strokeColor=inherit;fontSize=14;" vertex="1" parent="Efuom8H8bGFNNsh-Mxzv-1">
          <mxGeometry y="381" width="610" height="40" as="geometry" />
        </mxCell>
        <mxCell id="Efuom8H8bGFNNsh-Mxzv-60" value="&lt;b&gt;注销 字符设备&lt;/b&gt;" style="shape=partialRectangle;html=1;whiteSpace=wrap;connectable=0;fillColor=none;top=0;left=0;bottom=0;right=0;overflow=hidden;strokeColor=inherit;fontSize=14;" vertex="1" parent="Efuom8H8bGFNNsh-Mxzv-59">
          <mxGeometry width="120" height="40" as="geometry">
            <mxRectangle width="120" height="40" as="alternateBounds" />
          </mxGeometry>
        </mxCell>
        <mxCell id="Efuom8H8bGFNNsh-Mxzv-61" value="" style="shape=partialRectangle;html=1;whiteSpace=wrap;connectable=0;fillColor=none;top=0;left=0;bottom=0;right=0;align=left;spacingLeft=6;overflow=hidden;strokeColor=inherit;fontSize=14;" vertex="1" parent="Efuom8H8bGFNNsh-Mxzv-59">
          <mxGeometry x="120" width="490" height="40" as="geometry">
            <mxRectangle width="490" height="40" as="alternateBounds" />
          </mxGeometry>
        </mxCell>
        <mxCell id="Efuom8H8bGFNNsh-Mxzv-67" value="" style="shape=tableRow;horizontal=0;startSize=0;swimlaneHead=0;swimlaneBody=0;top=0;left=0;bottom=0;right=0;collapsible=0;dropTarget=0;fillColor=none;points=[[0,0.5],[1,0.5]];portConstraint=eastwest;strokeColor=inherit;fontSize=14;" vertex="1" parent="Efuom8H8bGFNNsh-Mxzv-1">
          <mxGeometry y="421" width="610" height="40" as="geometry" />
        </mxCell>
        <mxCell id="Efuom8H8bGFNNsh-Mxzv-68" value="&lt;b&gt;注销 设备号&lt;/b&gt;" style="shape=partialRectangle;html=1;whiteSpace=wrap;connectable=0;fillColor=none;top=0;left=0;bottom=0;right=0;overflow=hidden;strokeColor=inherit;fontSize=14;" vertex="1" parent="Efuom8H8bGFNNsh-Mxzv-67">
          <mxGeometry width="120" height="40" as="geometry">
            <mxRectangle width="120" height="40" as="alternateBounds" />
          </mxGeometry>
        </mxCell>
        <mxCell id="Efuom8H8bGFNNsh-Mxzv-69" value="" style="shape=partialRectangle;html=1;whiteSpace=wrap;connectable=0;fillColor=none;top=0;left=0;bottom=0;right=0;align=left;spacingLeft=6;overflow=hidden;strokeColor=inherit;fontSize=14;" vertex="1" parent="Efuom8H8bGFNNsh-Mxzv-67">
          <mxGeometry x="120" width="490" height="40" as="geometry">
            <mxRectangle width="490" height="40" as="alternateBounds" />
          </mxGeometry>
        </mxCell>
        <mxCell id="Efuom8H8bGFNNsh-Mxzv-20" value="&lt;h1&gt;&lt;font style=&quot;&quot;&gt;&lt;span style=&quot;font-size: 20px;&quot;&gt;字符设备开发流程&lt;/span&gt;&lt;br&gt;&lt;font style=&quot;font-size: 15px;&quot;&gt;字符设备驱动的开发遵循固定的框架，按照以下“七步走”&lt;/font&gt;&lt;/font&gt;&lt;/h1&gt;" style="rounded=0;whiteSpace=wrap;html=1;fillColor=#dae8fc;strokeColor=#6c8ebf;" vertex="1" parent="1">
          <mxGeometry x="200" y="90" width="610" height="59" as="geometry" />
        </mxCell>
        <mxCell id="Efuom8H8bGFNNsh-Mxzv-21" value="&lt;h2&gt;&lt;font style=&quot;font-size: 14px; font-weight: normal;&quot;&gt;devt =&amp;nbsp; &lt;/font&gt;&lt;font style=&quot;font-size: 14px;&quot;&gt;register_chrdev_region()&lt;/font&gt;&lt;/h2&gt;" style="rounded=1;whiteSpace=wrap;html=1;fillColor=#dae8fc;strokeColor=#6c8ebf;fontStyle=1" vertex="1" parent="1">
          <mxGeometry x="330" y="200" width="220" height="21" as="geometry" />
        </mxCell>
        <mxCell id="Efuom8H8bGFNNsh-Mxzv-26" value="&lt;h2&gt;&lt;font style=&quot;font-size: 14px; font-weight: normal;&quot;&gt;devt = &lt;/font&gt;&lt;font style=&quot;font-size: 14px;&quot;&gt;alloc_chrdev_region()&lt;/font&gt;&lt;/h2&gt;" style="rounded=1;whiteSpace=wrap;html=1;fillColor=#dae8fc;strokeColor=#6c8ebf;fontStyle=1" vertex="1" parent="1">
          <mxGeometry x="570" y="200" width="230" height="21" as="geometry" />
        </mxCell>
        <mxCell id="Efuom8H8bGFNNsh-Mxzv-27" value="&lt;h2&gt;&lt;font style=&quot;font-size: 14px; font-weight: normal;&quot;&gt;struct file_operations &lt;/font&gt;&lt;font style=&quot;font-size: 14px;&quot;&gt;fops&lt;/font&gt;&lt;font style=&quot;font-size: 14px; font-weight: normal;&quot;&gt;= { .open = xxx_open, ......}&lt;/font&gt;&lt;/h2&gt;" style="rounded=1;whiteSpace=wrap;html=1;fillColor=#dae8fc;strokeColor=#6c8ebf;fontStyle=1" vertex="1" parent="1">
          <mxGeometry x="330" y="240" width="470" height="21" as="geometry" />
        </mxCell>
        <mxCell id="Efuom8H8bGFNNsh-Mxzv-28" value="&lt;h2&gt;&lt;font style=&quot;font-size: 14px;&quot;&gt;cdev_init&lt;/font&gt;&lt;font style=&quot;font-size: 14px; font-weight: normal;&quot;&gt;(cdev, fops)&lt;/font&gt;&lt;/h2&gt;" style="rounded=1;whiteSpace=wrap;html=1;fillColor=#dae8fc;strokeColor=#6c8ebf;fontStyle=1" vertex="1" parent="1">
          <mxGeometry x="330" y="279" width="470" height="21" as="geometry" />
        </mxCell>
        <mxCell id="Efuom8H8bGFNNsh-Mxzv-47" value="&lt;h2&gt;&lt;font style=&quot;font-size: 14px; font-weight: normal;&quot;&gt;struct &lt;/font&gt;&lt;font style=&quot;font-size: 14px;&quot;&gt;cdev &lt;/font&gt;&lt;font style=&quot;font-size: 14px; font-weight: normal;&quot;&gt;cdev&lt;/font&gt;&lt;/h2&gt;" style="rounded=1;whiteSpace=wrap;html=1;fillColor=#dae8fc;strokeColor=#6c8ebf;fontStyle=1" vertex="1" parent="1">
          <mxGeometry x="330" y="160" width="220" height="21" as="geometry" />
        </mxCell>
        <mxCell id="Efuom8H8bGFNNsh-Mxzv-48" value="&lt;h2&gt;&lt;font style=&quot;font-size: 14px; font-weight: normal;&quot;&gt;cdev = &lt;/font&gt;&lt;font style=&quot;font-size: 14px;&quot;&gt;cdev_clloc&lt;/font&gt;&lt;font style=&quot;font-size: 14px; font-weight: normal;&quot;&gt;()&lt;/font&gt;&lt;/h2&gt;" style="rounded=1;whiteSpace=wrap;html=1;fillColor=#dae8fc;strokeColor=#6c8ebf;fontStyle=1" vertex="1" parent="1">
          <mxGeometry x="570" y="160" width="230" height="21" as="geometry" />
        </mxCell>
        <mxCell id="Efuom8H8bGFNNsh-Mxzv-49" value="&lt;h2&gt;&lt;font style=&quot;font-size: 14px;&quot;&gt;cdev_add&lt;/font&gt;&lt;font style=&quot;font-size: 14px; font-weight: normal;&quot;&gt;(cdev, devt, num)&lt;/font&gt;&lt;/h2&gt;" style="rounded=1;whiteSpace=wrap;html=1;fillColor=#dae8fc;strokeColor=#6c8ebf;fontStyle=1" vertex="1" parent="1">
          <mxGeometry x="330" y="320" width="470" height="21" as="geometry" />
        </mxCell>
        <mxCell id="Efuom8H8bGFNNsh-Mxzv-53" value="&lt;h2&gt;&lt;font style=&quot;font-size: 14px; font-weight: normal;&quot;&gt;cdev_class = &lt;/font&gt;&lt;font style=&quot;font-size: 14px;&quot;&gt;class_create&lt;/font&gt;&lt;font style=&quot;font-size: 14px; font-weight: normal;&quot;&gt;(THIS_MODULE, class_name)&lt;/font&gt;&lt;/h2&gt;" style="rounded=1;whiteSpace=wrap;html=1;fillColor=#dae8fc;strokeColor=#6c8ebf;fontStyle=1" vertex="1" parent="1">
          <mxGeometry x="330" y="360" width="470" height="21" as="geometry" />
        </mxCell>
        <mxCell id="Efuom8H8bGFNNsh-Mxzv-54" value="&lt;h2&gt;&lt;font style=&quot;font-size: 14px; font-weight: normal;&quot;&gt;cdev_device = &lt;/font&gt;&lt;font style=&quot;font-size: 14px;&quot;&gt;device_create&lt;/font&gt;&lt;font style=&quot;font-size: 14px; font-weight: normal;&quot;&gt;(cdev_class, cdev_parent, devt, NULL, cdev_name)&lt;/font&gt;&lt;/h2&gt;" style="rounded=1;whiteSpace=wrap;html=1;fillColor=#dae8fc;strokeColor=#6c8ebf;fontStyle=1" vertex="1" parent="1">
          <mxGeometry x="330" y="400" width="470" height="40" as="geometry" />
        </mxCell>
        <mxCell id="Efuom8H8bGFNNsh-Mxzv-55" value="&lt;h2&gt;&lt;span style=&quot;font-size: 14px;&quot;&gt;class_destory&lt;/span&gt;&lt;span style=&quot;font-size: 14px; font-weight: normal;&quot;&gt;(cdev_class)&lt;/span&gt;&lt;/h2&gt;" style="rounded=1;whiteSpace=wrap;html=1;fillColor=#dae8fc;strokeColor=#6c8ebf;fontStyle=1" vertex="1" parent="1">
          <mxGeometry x="330" y="500" width="470" height="21" as="geometry" />
        </mxCell>
        <mxCell id="Efuom8H8bGFNNsh-Mxzv-62" value="&lt;h2&gt;&lt;span style=&quot;font-size: 14px;&quot;&gt;cdev_del&lt;/span&gt;&lt;span style=&quot;font-size: 14px; font-weight: normal;&quot;&gt;(cdev)&lt;/span&gt;&lt;/h2&gt;" style="rounded=1;whiteSpace=wrap;html=1;fillColor=#dae8fc;strokeColor=#6c8ebf;fontStyle=1" vertex="1" parent="1">
          <mxGeometry x="330" y="540" width="470" height="21" as="geometry" />
        </mxCell>
        <mxCell id="Efuom8H8bGFNNsh-Mxzv-63" value="&lt;h2&gt;&lt;span style=&quot;font-size: 14px;&quot;&gt;unreigister_chrdev_region&lt;/span&gt;&lt;span style=&quot;font-size: 14px; font-weight: normal;&quot;&gt;(devt, num)&lt;/span&gt;&lt;/h2&gt;" style="rounded=1;whiteSpace=wrap;html=1;fillColor=#dae8fc;strokeColor=#6c8ebf;fontStyle=1" vertex="1" parent="1">
          <mxGeometry x="330" y="580" width="470" height="21" as="geometry" />
        </mxCell>
        <mxCell id="Efuom8H8bGFNNsh-Mxzv-64" value="" style="shape=flexArrow;endArrow=classic;html=1;rounded=0;endWidth=14.482758620689655;endSize=10.6;" edge="1" parent="1">
          <mxGeometry width="50" height="50" relative="1" as="geometry">
            <mxPoint x="180" y="149" as="sourcePoint" />
            <mxPoint x="180" y="569" as="targetPoint" />
          </mxGeometry>
        </mxCell>
        <mxCell id="Efuom8H8bGFNNsh-Mxzv-66" value="" style="shape=curlyBracket;whiteSpace=wrap;html=1;rounded=1;flipH=1;labelPosition=right;verticalLabelPosition=middle;align=left;verticalAlign=middle;fillColor=#dae8fc;strokeColor=#6c8ebf;" vertex="1" parent="1">
          <mxGeometry x="800" y="470" width="40" height="120" as="geometry" />
        </mxCell>
        <mxCell id="Efuom8H8bGFNNsh-Mxzv-70" value="&lt;h2&gt;&lt;span style=&quot;font-size: 14px;&quot;&gt;device_destory&lt;/span&gt;&lt;span style=&quot;font-size: 14px; font-weight: normal;&quot;&gt;(cdev_class, devt)&lt;/span&gt;&lt;/h2&gt;" style="rounded=1;whiteSpace=wrap;html=1;fillColor=#dae8fc;strokeColor=#6c8ebf;fontStyle=1" vertex="1" parent="1">
          <mxGeometry x="330" y="460" width="470" height="21" as="geometry" />
        </mxCell>
        <mxCell id="Efuom8H8bGFNNsh-Mxzv-73" value="&lt;font style=&quot;font-size: 14px;&quot;&gt;&lt;b&gt;最后创建的先注销&lt;/b&gt;&lt;/font&gt;" style="text;html=1;align=center;verticalAlign=middle;whiteSpace=wrap;rounded=0;" vertex="1" parent="1">
          <mxGeometry x="830" y="515" width="60" height="30" as="geometry" />
        </mxCell>
        <mxCell id="Efuom8H8bGFNNsh-Mxzv-117" style="edgeStyle=orthogonalEdgeStyle;rounded=0;orthogonalLoop=1;jettySize=auto;html=1;entryX=0;entryY=0.5;entryDx=0;entryDy=0;" edge="1" parent="1" source="Efuom8H8bGFNNsh-Mxzv-79" target="Efuom8H8bGFNNsh-Mxzv-116">
          <mxGeometry relative="1" as="geometry" />
        </mxCell>
        <mxCell id="Efuom8H8bGFNNsh-Mxzv-126" style="edgeStyle=orthogonalEdgeStyle;rounded=0;orthogonalLoop=1;jettySize=auto;html=1;entryX=0.5;entryY=0;entryDx=0;entryDy=0;" edge="1" parent="1" source="Efuom8H8bGFNNsh-Mxzv-79" target="Efuom8H8bGFNNsh-Mxzv-123">
          <mxGeometry relative="1" as="geometry" />
        </mxCell>
        <mxCell id="Efuom8H8bGFNNsh-Mxzv-79" value="&lt;h2&gt;open()&lt;/h2&gt;" style="rounded=1;whiteSpace=wrap;html=1;fillColor=#dae8fc;strokeColor=#6c8ebf;fontStyle=1;fontSize=9;flipV=1;flipH=1;direction=east;" vertex="1" parent="1">
          <mxGeometry x="140" y="725.5" width="90" height="26" as="geometry" />
        </mxCell>
        <mxCell id="Efuom8H8bGFNNsh-Mxzv-80" value="&lt;h1&gt;open函数解析&lt;/h1&gt;" style="rounded=1;whiteSpace=wrap;html=1;fontSize=9;" vertex="1" parent="1">
          <mxGeometry x="140" y="670" width="730" height="39" as="geometry" />
        </mxCell>
        <mxCell id="Efuom8H8bGFNNsh-Mxzv-116" value="&lt;h2&gt;&lt;span style=&quot;font-weight: normal;&quot;&gt;用户空间程序调用open(&quot;/dev/mydev&quot;, O_RDWR)&lt;/span&gt;&lt;/h2&gt;" style="rounded=1;whiteSpace=wrap;html=1;fillColor=#fff2cc;strokeColor=#d6b656;fontStyle=1;fontSize=9;" vertex="1" parent="1">
          <mxGeometry x="520" y="725.5" width="350" height="26" as="geometry" />
        </mxCell>
        <mxCell id="Efuom8H8bGFNNsh-Mxzv-136" style="edgeStyle=orthogonalEdgeStyle;rounded=0;orthogonalLoop=1;jettySize=auto;html=1;entryX=0.5;entryY=0;entryDx=0;entryDy=0;" edge="1" parent="1" source="Efuom8H8bGFNNsh-Mxzv-123" target="Efuom8H8bGFNNsh-Mxzv-128">
          <mxGeometry relative="1" as="geometry" />
        </mxCell>
        <mxCell id="Efuom8H8bGFNNsh-Mxzv-123" value="&lt;h2&gt;sys_open&lt;/h2&gt;" style="rounded=1;whiteSpace=wrap;html=1;fillColor=#dae8fc;strokeColor=#6c8ebf;fontStyle=1;fontSize=9;flipV=1;flipH=1;direction=east;" vertex="1" parent="1">
          <mxGeometry x="140" y="770" width="90" height="26" as="geometry" />
        </mxCell>
        <mxCell id="Efuom8H8bGFNNsh-Mxzv-124" style="edgeStyle=orthogonalEdgeStyle;rounded=0;orthogonalLoop=1;jettySize=auto;html=1;entryX=0;entryY=0.5;entryDx=0;entryDy=0;" edge="1" source="Efuom8H8bGFNNsh-Mxzv-123" target="Efuom8H8bGFNNsh-Mxzv-125" parent="1">
          <mxGeometry relative="1" as="geometry" />
        </mxCell>
        <mxCell id="Efuom8H8bGFNNsh-Mxzv-125" value="&lt;h2&gt;&lt;span style=&quot;font-weight: 400;&quot;&gt;通过系统调用接口进入内核空间&lt;/span&gt;&lt;/h2&gt;" style="rounded=1;whiteSpace=wrap;html=1;fillColor=#fff2cc;strokeColor=#d6b656;fontStyle=1;fontSize=9;" vertex="1" parent="1">
          <mxGeometry x="650" y="770" width="220" height="26" as="geometry" />
        </mxCell>
        <mxCell id="Efuom8H8bGFNNsh-Mxzv-142" style="edgeStyle=orthogonalEdgeStyle;rounded=0;orthogonalLoop=1;jettySize=auto;html=1;entryX=0;entryY=0.25;entryDx=0;entryDy=0;" edge="1" parent="1" source="Efuom8H8bGFNNsh-Mxzv-128" target="Efuom8H8bGFNNsh-Mxzv-133">
          <mxGeometry relative="1" as="geometry" />
        </mxCell>
        <mxCell id="Efuom8H8bGFNNsh-Mxzv-143" style="edgeStyle=orthogonalEdgeStyle;rounded=0;orthogonalLoop=1;jettySize=auto;html=1;entryX=0;entryY=0.5;entryDx=0;entryDy=0;" edge="1" parent="1" source="Efuom8H8bGFNNsh-Mxzv-128" target="Efuom8H8bGFNNsh-Mxzv-139">
          <mxGeometry relative="1" as="geometry" />
        </mxCell>
        <mxCell id="Efuom8H8bGFNNsh-Mxzv-128" value="&lt;h2&gt;do_sys_open&lt;/h2&gt;" style="rounded=1;whiteSpace=wrap;html=1;fillColor=#dae8fc;strokeColor=#6c8ebf;fontStyle=1;fontSize=9;flipV=1;flipH=1;direction=east;" vertex="1" parent="1">
          <mxGeometry x="140" y="817" width="90" height="26" as="geometry" />
        </mxCell>
        <mxCell id="Efuom8H8bGFNNsh-Mxzv-129" style="edgeStyle=orthogonalEdgeStyle;rounded=0;orthogonalLoop=1;jettySize=auto;html=1;entryX=0;entryY=0.5;entryDx=0;entryDy=0;" edge="1" source="Efuom8H8bGFNNsh-Mxzv-128" target="Efuom8H8bGFNNsh-Mxzv-130" parent="1">
          <mxGeometry relative="1" as="geometry" />
        </mxCell>
        <mxCell id="Efuom8H8bGFNNsh-Mxzv-130" value="&lt;h2&gt;&lt;span style=&quot;font-weight: 400;&quot;&gt;系统调用在内核中的入口函数&lt;/span&gt;&lt;/h2&gt;" style="rounded=1;whiteSpace=wrap;html=1;fillColor=#fff2cc;strokeColor=#d6b656;fontStyle=1;fontSize=9;" vertex="1" parent="1">
          <mxGeometry x="670" y="817" width="200" height="26" as="geometry" />
        </mxCell>
        <mxCell id="Efuom8H8bGFNNsh-Mxzv-133" value="&lt;h2&gt;get_unused_fd_flags()&lt;/h2&gt;" style="rounded=1;whiteSpace=wrap;html=1;fillColor=#dae8fc;strokeColor=#6c8ebf;fontStyle=1;fontSize=9;flipV=1;flipH=1;direction=east;" vertex="1" parent="1">
          <mxGeometry x="210" y="860" width="160" height="26" as="geometry" />
        </mxCell>
        <mxCell id="Efuom8H8bGFNNsh-Mxzv-134" style="edgeStyle=orthogonalEdgeStyle;rounded=0;orthogonalLoop=1;jettySize=auto;html=1;entryX=0;entryY=0.5;entryDx=0;entryDy=0;" edge="1" source="Efuom8H8bGFNNsh-Mxzv-133" target="Efuom8H8bGFNNsh-Mxzv-135" parent="1">
          <mxGeometry relative="1" as="geometry" />
        </mxCell>
        <mxCell id="Efuom8H8bGFNNsh-Mxzv-135" value="&lt;h2&gt;&lt;span style=&quot;font-weight: 400;&quot;&gt;进程文件描述符管理，&lt;/span&gt;分配空闲的fd&lt;/h2&gt;" style="rounded=1;whiteSpace=wrap;html=1;fillColor=#fff2cc;strokeColor=#d6b656;fontStyle=1;fontSize=9;" vertex="1" parent="1">
          <mxGeometry x="630" y="860" width="240" height="26" as="geometry" />
        </mxCell>
        <mxCell id="Efuom8H8bGFNNsh-Mxzv-147" style="edgeStyle=orthogonalEdgeStyle;rounded=0;orthogonalLoop=1;jettySize=auto;html=1;entryX=0;entryY=0.5;entryDx=0;entryDy=0;" edge="1" parent="1" source="Efuom8H8bGFNNsh-Mxzv-139" target="Efuom8H8bGFNNsh-Mxzv-144">
          <mxGeometry relative="1" as="geometry" />
        </mxCell>
        <mxCell id="Efuom8H8bGFNNsh-Mxzv-151" style="edgeStyle=orthogonalEdgeStyle;rounded=0;orthogonalLoop=1;jettySize=auto;html=1;entryX=0;entryY=0.5;entryDx=0;entryDy=0;" edge="1" parent="1" source="Efuom8H8bGFNNsh-Mxzv-139" target="Efuom8H8bGFNNsh-Mxzv-148">
          <mxGeometry relative="1" as="geometry" />
        </mxCell>
        <mxCell id="Efuom8H8bGFNNsh-Mxzv-139" value="&lt;h2&gt;do_file_open()&lt;/h2&gt;" style="rounded=1;whiteSpace=wrap;html=1;fillColor=#dae8fc;strokeColor=#6c8ebf;fontStyle=1;fontSize=9;flipV=1;flipH=1;direction=east;" vertex="1" parent="1">
          <mxGeometry x="210" y="900" width="120" height="26" as="geometry" />
        </mxCell>
        <mxCell id="Efuom8H8bGFNNsh-Mxzv-140" style="edgeStyle=orthogonalEdgeStyle;rounded=0;orthogonalLoop=1;jettySize=auto;html=1;entryX=0;entryY=0.5;entryDx=0;entryDy=0;" edge="1" source="Efuom8H8bGFNNsh-Mxzv-139" target="Efuom8H8bGFNNsh-Mxzv-141" parent="1">
          <mxGeometry relative="1" as="geometry" />
        </mxCell>
        <mxCell id="Efuom8H8bGFNNsh-Mxzv-141" value="&lt;h2&gt;&lt;span style=&quot;font-weight: 400;&quot;&gt;打开文件并&lt;/span&gt;创建file结构体&lt;/h2&gt;" style="rounded=1;whiteSpace=wrap;html=1;fillColor=#fff2cc;strokeColor=#d6b656;fontStyle=1;fontSize=9;" vertex="1" parent="1">
          <mxGeometry x="690" y="900" width="180" height="26" as="geometry" />
        </mxCell>
        <mxCell id="Efuom8H8bGFNNsh-Mxzv-144" value="&lt;h2&gt;path_openat()&lt;/h2&gt;" style="rounded=1;whiteSpace=wrap;html=1;fillColor=#dae8fc;strokeColor=#6c8ebf;fontStyle=1;fontSize=9;flipV=1;flipH=1;direction=east;" vertex="1" parent="1">
          <mxGeometry x="300" y="941.5" width="120" height="26" as="geometry" />
        </mxCell>
        <mxCell id="Efuom8H8bGFNNsh-Mxzv-145" style="edgeStyle=orthogonalEdgeStyle;rounded=0;orthogonalLoop=1;jettySize=auto;html=1;entryX=0;entryY=0.5;entryDx=0;entryDy=0;" edge="1" source="Efuom8H8bGFNNsh-Mxzv-144" target="Efuom8H8bGFNNsh-Mxzv-146" parent="1">
          <mxGeometry relative="1" as="geometry" />
        </mxCell>
        <mxCell id="Efuom8H8bGFNNsh-Mxzv-146" value="&lt;h2&gt;&lt;span style=&quot;font-weight: 400;&quot;&gt;路径解析和文件查找&lt;/span&gt;&lt;/h2&gt;" style="rounded=1;whiteSpace=wrap;html=1;fillColor=#fff2cc;strokeColor=#d6b656;fontStyle=1;fontSize=9;" vertex="1" parent="1">
          <mxGeometry x="720" y="941.5" width="150" height="26" as="geometry" />
        </mxCell>
        <mxCell id="Efuom8H8bGFNNsh-Mxzv-148" value="&lt;h2&gt;do_dentry_open()&lt;/h2&gt;" style="rounded=1;whiteSpace=wrap;html=1;fillColor=#dae8fc;strokeColor=#6c8ebf;fontStyle=1;fontSize=9;flipV=1;flipH=1;direction=east;fontColor=light-dark(#FF0000,#FFFFFF);" vertex="1" parent="1">
          <mxGeometry x="300" y="981.5" width="120" height="26" as="geometry" />
        </mxCell>
        <mxCell id="Efuom8H8bGFNNsh-Mxzv-149" style="edgeStyle=orthogonalEdgeStyle;rounded=0;orthogonalLoop=1;jettySize=auto;html=1;entryX=0;entryY=0.5;entryDx=0;entryDy=0;" edge="1" source="Efuom8H8bGFNNsh-Mxzv-148" target="Efuom8H8bGFNNsh-Mxzv-150" parent="1">
          <mxGeometry relative="1" as="geometry" />
        </mxCell>
        <mxCell id="Efuom8H8bGFNNsh-Mxzv-150" value="&lt;h2&gt;核心&lt;span style=&quot;font-weight: 400;&quot;&gt;：打开对应的文件&lt;/span&gt;&lt;/h2&gt;" style="rounded=1;whiteSpace=wrap;html=1;fillColor=#fff2cc;strokeColor=#d6b656;fontStyle=1;fontSize=9;fontColor=light-dark(#FF0000,#FFFFFF);" vertex="1" parent="1">
          <mxGeometry x="720" y="981.5" width="150" height="26" as="geometry" />
        </mxCell>
        <mxCell id="Efuom8H8bGFNNsh-Mxzv-155" value="" style="shape=image;verticalLabelPosition=bottom;labelBackgroundColor=default;verticalAlign=top;aspect=fixed;imageAspect=0;image=data:image/png,iVBORw0KGgoAAAANSUhEUgAAAnYAAADQCAIAAAAF7Lt0AAAgAElEQVR4Aey991cjSZoufP+Q77fuHXPG7d57d+7e3ZnZ3Xtqdmbuds83803PzDYUVdXV1eVoYQpJgDACITzCFE44YYT33hsBEkIIKwQCCSRkEm8ESMLphw8RIpSkDIKiauju4OThvBkZ8UbEk6l88o33jYj/ZjZh6EAIIAQQAggBhABC4M4R+G93rhEpRAggBBACCAGEAELAbMIQxSIjHiGAEEAIIAQQAu8FAUSx7wVW9PmGEEAIIAQQAggBRLGIYhECCAGEAEIAIfBeELgxxeZyi6nRcYRvEz96VEl1OSHRndODXSU5KsaoVzvLPCToZRcX4q+eGXW0uMTFhQl8otmEjY7xtGopSDw1aJ0dhFIOT08NWofpZhNm1Kufkmmdfe3OMtw0/c4V3rQBKD9CACGAEEAIvCcEbkaxx4fa59TQxvZGfGsWF8Y9SOQlxSQ+0U1Zv73sQSIb9SvO8vfxulhsNuFqUWVZSm4OIbGmue6LgOCmjib54qQHiezwePwm0GzCaprq8FczCwsyCwvwKR4kck1THUE/OOUL+718qXvbS/irE1MC/4goTx9LpSk5xIbhc9rLDhXaZ0MpCAGEAEIAIfCNQ+BmFDs2PuTpQ95YXcD3s7CiNIARjU9xIRv2VDubcnioVRIPEnlVNwdTdjbleMaFFCuRCAksCE9h/rm5sbBE1pxU9HVoBGxDW3eLYHQAnppN2Mmh1qhfCYyOm5zinwtHB5qjA41RvwIPFpvd1d+BLwLlhKzM+IwMeAqEVzR6THq6YHRAKOItLowTrro+dajQdRF0FSGAEEAIIAS+EQjcjGJT83IiklPwHTs1aF8Gh9c0O7b58DmBXFFfBanRmQAsyD5eFz5DH68LUCCLzS6uKoN0CPkV1rWkmMRTbAAjenSMB68CYXtD/jww9AQ3IOwdEqHfWQZXI5JT7IuYTZh+e9nLjzok6MVrOzrQeJDIIvEgPtFN2aFCN8uibAgBhABCACFwzxG4AcUa9lRP3gR1D3TiuzQ5LfAgkTHNHD7RhVxRX1VYUQozaNXSR/6WwVt45JYUAYo9MVhszRxuUUx6ulG/AuhQvjj5IjDsYFcJnK9runlQ0LCnAolmEwYoVioVPfIP9A1nwOOLgOA+XhfI3z/YnVXEgZWa9tUPfalnRh1I8Y9k2vt6zSasu7/jSUAQJPXjQ+3BrnJnU+5BIg8Jeg92lQe7SuhX3t6Qs9jsLykhD32plKgYh5xNUGg2YbtbSxmcgpdBYS+Dw7OLOfs7lp6aTdgaJvMgkfsHu2lxiU8CghipqZjW2ncL9+8sZxVxXgaHP6OEsEsKDy/wgaV6eB2BMfFfBAQz09IgYrDvDoWDXWUet+Q1jf6MEpKYlYWvy2F+lIgQQAggBBAC9gjcgGIHhnu8/KjQ1AO6MgsLwhKS7PU6SyFQrEQi9I9k4jNDigWJvuGMh75U+aLF0Xt0oAmJTwKhRlq19CmZplmZBdn6eF0vg8K6+zvOjDqFfIIUFimViiJYVwzut/l5kGKjUlOhibykmNxYXXhFo8NmPHkTtLW+CE+hEMFKSS/Ig6cdvW1QCRSgLzYtP5cSFTMxJZDNi4uryrz8qIQB9vNZyQSFZhMWk57uR48aGOrpH+z2DWckZWeD6gDFnjdbvjipUs7QWclhiSzYkriMTPJFXeKJYf9IJvReg1LMtDTV8rRaJQmOSyBgAjUQBBab/ZpG7x7o5Av7g+MSAhjRRwcaQh50ihBACCAEEAKuEbgBxcakpydmZeHVgWjY9p5WfKJrmUCxFfVVzyi0FeUMLIWnWLVq9jwYihIVExybcGLQkqNiPEhkUljki8AwL19qbXM9LGU2YQuycQozdm5ubH5+LIARLZWKzi1OCjMOHs8oNECxmhWL2oa2xnPaCE1IXFJMLi6MB8bEA237O8qHvlT7oOKN1QVPH/L4BB9WurW+KJ0VTU+PeJDIdS310lmRdFakVklABkpUDIyZOjnUTk4LCEFSDhV6kMjT0yNAw8SUZYQAfNMAsoROZeCZBpe21i1m9MyMEJby9CHvbiqgFQtLCUU8DxLZsKeCXXAoHOyqPEhkocg6uq5VSz1I5AXZzXzMDjWjRIQAQgAh8J1CwF2K3dmUP/SlCoRX4ob4wv6HvtSdTbn7kOEp9vhQ60ePSszKehkcrlZZ7VE8xTa0NdDiEllsdnpB3uS0QCIZlS9OqlWzYYksFpt9ZtT18brmpCJYOxjpnZoWBMXEu7Bii6vKPEjkls5mswkLS2QtKSYFowOePpRzs/gpmfYkIMiDRH5KpsWkp0PNZhPW0NZocd8eEufzHO079sWm5uV4h9Ab2xvFE8P29qtDhbJ5sQfJFk22qpuDodqAYmEslVo140EiAzoHpbY3rHdhY3XBg0RWyC12PygF2RHEfq9jMny/7GWVEii33hH7DCgFIYAQQAggBNxBwF2KbetueUqmmfavTGBNyMqMTSeG17quFU+xVQ3VwXEJZ0ZddVPNKxodOHQhxZ4Zdf4RUXWtDSw2e3tDDuhzd2spJD4pKjXVqFerVRIvP6p4YhjWuI7JVpQz/YPd8RkZUqno8ZtA/0gmPJ6SrVYsCNrCUyzQcGbUgePUoO3sa4dDvuAqhRmXX1oC64KCM4rd3pCn5ed6h0SAMeTknBzo63WmUDor8iCRN9esY9R4WsXLZhN2SbEW6x+UeuQfCA8PEhmQMaEUoNi16yhWuTR9/pEBB+FhT5GAEEAIIAQQAjdCwF2KDYlPyiy0xQfB8Fre8JXw2mvrhhQ7yO995EeVXtqg+aUl/hFRu1tLkGIHhnui376Fk3bMJmx4pO9FYFh6Qd7xxaybkPiktLxcfI1VjTWZhQU1zXW53GKYXlpTUVFfBebqgET99nJVY409xcIiF3NnaznlXJiycmHYzc+PwRQoOKNYmMGoXxke6fMgkccnbYPMDhVea8XKZGKgFhTHW7ELsnHNyiw8jvYtrtPbUSyyYuG9QwJCACGAEHgXBNyiWExjGbGcmhbga7JEw74Jutaxhy9iNmEV9VWccm5JdbmnDwUGH1n4z6CNTE5lpqXlcK0Rxbnc4pkZIaTYrXU5KSxyYLjHbMJM++qo1NTguAQY3Gs2YWdGnU84Y2JKkJiV1d7bdnyoDY5L2FxbBBQ7OysCFjNoD55igYcSxit5kMiFFaXsksK61gbY+PK6KlJYJMEMBVedUWxNUx0+LPllUBh+rq1DhdsbFq8q9MVOTvE9SGQQVAzIsn+wG1QqHh+Cl4AvViG3Lne1v6OcmRGC6CR3KLatu4WwWBXyxcL7jgSEAEIAIfAuCLhFsTVNdS+DwwkRQBGslLT8K0akO+0AVmxrVwskElhqZ1MulYqgFQtcvJBiAQ1bLDPdfHgS65EfNYKVAmenmE2YRDL6PDAUrD+1vDQ1MNQTmpBoNmGAYk8OtT7hjJFRawgPnmIV8kmw+gT8f2LQMlJSh0f6QNvOjDpSWGR5ncUUtj+cUSwjJZUaHScSD0okwsqGak8fMmRBFwpj0zP8I5kDwz0DQz1+9ChCbHBEcsogv0cwOhDAiA5PuhJRTGHGCUYHROLByOTUN5FM8DVwLcUCa9h+WDgxOwsfUfwmkokiiu1vPUpBCCAEEAKuEXCLYgMY0fjJrGYTBqJhxeNDrrXbX4UDxfaXQAqkWHBKoNheXudTMi2zsGBnUx799m1wbAKcRJSal1NcVS6RCJ8Hhu7vKL1DIkDz4EDxuWkbdBk2XNVYA81W+6Ufz4y6r6ghMH1OanGR4sOe8Y13RrGYdj4uPQPMi/WPiOrl2eYTu1C4t72UWXgxLzYozH5eLF/YH5pwMS82xdG82KCwZ5SQpOzsVZ11mvK1FHuwq3oTySRHxRBGI/Z3lLklRa8s82JpCZmZOrfnPeORQTJCACGAEPiOI3A9xSrkliV/8WOe1mhYqsVkvCl8zijWqFdvb8h3NxUsNru+1TYbB1JsZ1+7bzjDO4Q+yLeMFYNpstFv34YlJJ0cajdWF7z8qFq1NCEzs6qxZm5uDIQcm00Yp5xbUV9tNmGGPRWLzQZcAq1YQvtN++pTg3Zyiv9FQDBc+ym/tJjCJO58QCh4o9NbKLwkS+LmBzeqF2VGCCAEEAIIgQ+JwPUUW1xV7h8RRWgThRmXx3UQXkvIZn/qjGIxzZynD/l8aQs/ehQ0H8ESTkWVZWYTVl5X1dnXThiuNOypzgeELYsibSqa2pvOjLoMjsXABfWuKGeekmlfh0ZMXvUim03Y8tIUnMCKb2Qvr/OhL/UpmdbU3gTSTy52Pmhos/ll8flvId9O4SXFosmpDsbqb3EXUBGEAEIAIfABELieYu+2EceH2lvYvnfbhm+iNkSx38S7htqMEEAIfMcR+NAU+x2HG3UfIYAQQAggBL47CCCKRQOPCAGEAEIAIYAQeC8IIIp9L7B+d77RUE8RAggBhABCwBkCiGIRxSIEEAIIAYQAQuC9IIAo9r3A6uyLBqUjBBACCAGEwHcHAUSxiGIRAggBhABCACHwXhBAFPteYP3ufKPdq56ua+c0y1P3qkmoMQgBhMDfBIEF6ejBzrI7VR9d3UHOnSLu57l3FHsoHxY++tkyJ8T9PrjOudqRK/D80eZwpets6Oo3GoHjA01TfSWdTu/vaflGd8TNxp8aNP15/z5Y/Imb+VG2u0JANZ7XlvJjTPqNfJ8MjwyQ6DETUyN3hcZ91pOXmxUdzRwTutoLTsjvTkyIp9PpJv3Ke+rLu1Ksuip+f866XL77TXRRan++n//X78kz/N3X5jqntjFt+LOP1vuKXGfDXzWtSVbKmEeb8/jEG8kPOOxemYOd726kBJ/5ThRKtdLKyRsvK41vxr2VqyqKY2Kip8cHCZtVuGjwen/JxmC5iwx3eOl2dZ0eqMT1X7Wl/Lg54ePmhI/1OtvWyKeHK10ZP+/L/XfYSGlPCMjWnPDxeNMrmP5ehTWdLDYz+3VY1Asa401U/LvX5eLN8O7K8Rpu/RtfGn3bnPCxZtq2XSZe7bvIFrUzt1kyz/1Kewa7X9AYwrE7fgnIZBMvaIzdTYX7LfkAOY17qu6OBjqdPj7a77A6rXKaTqf3djUqF8cd7qLmsNRNE9+VYke8foq1Zt20Vtelzg6ubPx+U+X2+W+q8GBhcPizjw6Xbv+tdyeMiO/InSismRr+c3khXu23Q16QCul0+oJ09EbdmYt5PJ/41Y2K3Drz7epSitktSd9fFmXoJOU6Sfmx3royKGjGmUFzZrQtEr6nHQbZeIX/+cEoNresNCQxVTA6KJ4QTM0Ib40PLOj6zQCzvbvwLr/x08M7fkGB7nwAijWbsPexuN79pFiAamtTdUw0k7DNCbg0OTbAYES++7PkWsN9pFjXLf4AV9/l5weadyeMiO/pnSj8tlJsZXlRfl42Hi535NvRnjua7fPcrq65PvpAwX/Ya3OdMlr18G4pdk274h3A2153wCuxmdmVDXWu23Ojq98Iir1Rj9zPfFcUOzw8T4++sre3+224XU6ZbPweWrGgLwc7y5GREQ4NWek0n06nHx9obtdrN0tdQ7FnBs1yftDo038c/vPHomc/V5Uxgd6tkZrhzz4iHFOBNs+QuiZR/PqXgs9/OE7699XOPHdKaRtSoEJlUTi+A2dGraaWJfb+1YjnjyYpn+yIm/FXnclzMY+hwm2Rbfceswkbe/kvymL6bJSnwPNH474Pdsasi/4vF9BgESgQGuOwusN9dWx/2//LzX9UUyJWzvy6MAcOFJ8YtIVj/Z5VJb/nFpDbapfXFhxqICS6ULinX4kfaP2srPAP3PxEXvvBvtWLgG0pHnDYzbMjX9WXf1KSF9BWq7scunnZUPmAwyYco0prZNCXtWXskZ6o3uZPSvIeVZcMLFo3GygU9f2pjAN3HDo16v5SXlQ0NkBoqv3pzp4qpr/1T2Wcz8oK4wfa9q62sE0qfNlQ+Z8leW9aazSXLTSbMGf96pCO/q44t1c29nll0R+4BYm8duPVXwUrKWGgt9W+Gatd+WLvX/H/8j3ho5/JWC+OdyxW4MnuEryzeOF0X2XZvmlzfvizj7D27KnATwSeP5oK/ORAbh2exVqzRrx+CmtRV8WPvfwXeHq4NDLL8BQ++pno2c8VbMrJ7tK1dcGy9sKxXn6kX5ztCu7P/48j/SI4gM26qxmEA8JDxZ/al3VGsZi0cqDgP9qSfzRQ8B+r87X2BZ2l2FPsmVF3sKc62FNFp2eV1lYD2aGhQNB5u/fJxmD58GcfbQmqxa9+MeL10/n4p8fb1h/RfOJXczGPYS2zkZ8vpHmDU2cvjVv/xkU1TyDyawtX3ic92b+Y74sQVj1sS/lxf/6v1xdtL6gzg0bGi+pl/6I99WeCir/u6Wzkd6xfmmj2bk/9WV/Ov64vNrckfg8OFJ8ZNQtDcb3sX7al/FhQ8Vc9doMRAocUm1lU/ILGAIdkVgQRO39Kg+OT69ua3nI4JHpMRHK6VCqGV/e2l/PLy8nMBDIzsbCq4mDX8hsBx6pOlsDO9YmIic/OGREN4il2f1dZWFVBZib6RcYVVVe682BAte9DyMvNaqp34DtXySfodPrO+uL7qBTqvIZiLa8Vzx+tdXP0km6sPZv/1++t91u8BaY1ycZg+cZgucDzR/IMfyDvjltfc1hHzojXT7DWrG1Ro7o2if/X7+1Otl1byqAaA3rEL39BYDVtYyr/v76vKmNuDpXPJ34l+PyH7ozi6iXdG4Pla92c4c8+sqdY8etfbgvrjNrJxbSvR7x+erwpM5uwA/nwxmC5ppY1/NlH2sY00J7Dy5csRM1eyBJ0/4Gb3yQZGVZMhHc1/qbIQgkgG1fM+6Qkr3xicGBxPKCt5r8qig7dCGBzoTCoo/6L2lLh8hR/afJRTUl4t/X7AFBsQFutYlW2vLbwsqHCt8Wyi5/ZhE2oZgYWx+MH2v7AzR9YHAfH1q4SXP2ytgwwq2ZDni3o/l1x7tq2JRJvZUP+gMOGTDyjnn3AYavceCKp7XVe1dwO6Wi7dNSzqiSsqxFUdNnCmjntnGJV5tNc/XWTbaN7Z/3qkI7+tignZagD21KIlTN/4OZzRFfc/1FRDPuv1AOFYPjPf6cqZezNdG0Jqsde/LM80+LgPzNowG2dpHwyTfsDkDcGywGBAYqdCf2TXtJ9qODPhP953PeBtfHOKfZkd2ns+f+eCvxkvb9E15o5+sX/AC9613UBtQ7/d7797/BtDgXgiz3Sy8GA8GjVQ/cpdlvV25zwd/P9kVtLHdLe0Jak7++qr/lU2sBW6uqnMY1qa03tHcDb39HoVlQ1tTPb62qteha+r6Hgji/2du8TQLHyrDeHSyO7k21jz/9JkR0AcHNBsc5eGrf+jW8ru3WScvUkpznhY3uK7cv51Zqs7nBjcrLl6/bUn5l2Le8TswlbGIprS/nxIj9JKykTlP+5O/OfjvWWzy+zCZvtDu5I/XvlWDY2VyWq/aIl6fuQYhf5Se2pP1WN520q2oSVD3uy/vlk31rK4QNjNmHTk/Lunjn9tmZEsMCMt1CyTLpUXTsN8ivkU+IJgWDUwoX2FBuamDIjEW2uLRZWVfhFxu7vWN8MKfkFIYmpfCFveGSAlpCSWWTzQDPfZkYkp4snBHwhLyYjG0+xaQWF9OS3MxLRue8gNCk1q/j9OpidAQLTqyqKy0sdOMjWNLN0On1NI4U534dwDcUqsgJmwv4EK96b7jxUXvF4ORzYOdmRH29ZnzCzCZsK+r2ymA6VmE2Yw1Iww4T/bwgUO/HmNwo2BWQ4M2pFX/0vdZW7sRXH24sOKVaRZf2VHm/KLN/IQtt3/S0Gih/XcOF7X7W+iB/XfVRTkj9qpYT9ffVvi3IG5dfvSedM4cbO8gMOW6ycAWgIl6d+zWFv71l+EoDA+hesH6G8RfEDDhtP584Gir+sLYsbsH4eHRt0vynK7btU4t1UCS9lCrq/qr8+Pmj9ooVjSutv+/xT4AGHvXcRsEdo4bhyBl5y0a8O6eiDyz6aTdjb4a5XjVe+SSMiIqbEPPj8AGFjoJT/1++dGayjQAeKEb3EutMwyOBw8BZQLBx32Z1oG/7so6P1WQu8zil2k181/OePjzbmgGasPVvg+SNYtdmEOayL0GD86dZy56aibbzxRV/OrzYVbeAgvGQlXUHuU+xUq/8w94+wisGiT2c6rD8omEgQFueXQiL5XwfwcvLHvybz2PnjXwfwQhn8pcVlo14tk03IZBP05LfZJVwgyxcnCRrsT2/3PgEUa1BbH+yVMua4z/8Byl1QrOuXxi1+46DGI/2iQ4qdabe+T0y7suaEj1dl1vHzvpx/ne+3OvyO9PLWpO/rZiuAqr7cf5sfsF7SY0L8QLHlkq3UYivrBzrJNT+9vv65N7Qh/6DBjGwxPVoQkyj0DuDFJY8e7tkc9gd7KocUW1Zn/Rbf31G+oDGmJZaX/PaG4gWNIZVaTYUZiegFjbF/8V0OLs3NWe/IAL8PUuxlKeulGYnoJY2xt33N94H9o3KHKbXVpaUlBVDhqUFr0q8c7ioHeltZSQl/44FiXUum4PMfKDmh6wNcOGIG2+qMLI+3F+YTnwkf/Uzw+Q8En/9g+M8fAwMCFrwpxQof/b2uNRMWv5HgjGLxJC34/AdrXbZ7cIuf36fc/BapNTzqzIThKfY3Rbmdc7aRmc8ri6smbaGhzvriTKFEYzElN3et873WtpcecNgyneXlDghs9vKjTKqVPuCwsS1bmJ8LioUfAecDtr4t1dAEr5vm/55bYDq0/Eo9KovLxolMZt9+0MLVyx+VdtNiCi9gthZKtdbPxuU12QMOe3ndMujnol/AioUVlY3zPKuufBc7pNhDBX/4s49kSc9XO/P0km77kDeHtAcodmfManYbVGPjvg8MKstbxgXFahvTRp/+T9hCe8FhXfbZCClzfeEDnN8QEuHpjShWUPHX6TZblP5Uq89o1UOoyplwatDNSRRZuWLvC6KVSZcIgZcWX2zjDXyxt3ufAIo9O7R+La33FU/TrJ8LLijW9UvjFr9xgJIzil0Ysn30t7J+uDJhfZ+0JH1fPcmBCPdk/bNckAxO21N+ohxnWy8ZdXiKxVu0ZhPWm/MruYAFlTgTjHta0egCI27EO4DX2CTRrliNUZjfGcW29bTDPN7hTL7Q8jOXL06+oDE216zjqOuY7AWNoVq2fNyrlmde0BirOqsdNT9v88WCUjC6eGtd/oLGUC5bP7hhLR9SIFDshGiAfvGXmZG2rrV+Fr+/9lxjxZ4dapSFYeNf/xv/r98b/uyjcd8HJsxqP4E2OSRLWfJL8atf7E60HS6NHC6NTFI+eUeKdViLm6C4SbGrXflQ4S1+fp+U5LVKbf4SPMU+4LC7520U61nlFlE5Uzi5InnAYf+uOBceDzhsQFqAYiGB3YhiC64OvUIodvZUvynKHZSPz+vmHnDY0LkLM9gLoIVgqBkSv8MWWil2zfJDddEv4IuFFV1QrG3AymzCIiMjJx15iFc78ybJ/1fg+aPhzz4SPvr7nfErU2Yd0t4lxVrH3mGl11BsQ8ro03/EZybIDusi5LE/vUOK5Zd91pL4/VbWD8HRkvj9kUoP+xrtU3Y2NEHhw4UlEyGRfP0WMTDkphR7u/fJJcU6iLdyQbGuXxq3+I0DcJxR7OJwAkQPT7HNCR+rp2yjlD3Zv4A521J+rBrPgaXwFNuc8HFrku1+NSf8HSwF8zsU5iQK/+Ch3ILxjGwx4XvI4ghzYsU6pFgQJ7y1bo1j31hdeEFjLCksZKlcnj53EKxdUiw+ohjI3uFMeMBSDhv8ARJrqrhlXNtXzv72kko+sSQT19WUZmW+tUfpbpt0DcXCys4ONXpJt+jZzwmLQjh8jke8fqKpT4Vlp2l/fEeKdf1BCityKHwYinVmdJpN2PuwYmc1UtX6IjyAlfk+KNZswmid9ZE9TbnCXu+mK8OzDtGG9qgLK1ZyaWcvrS1YrNiL+C9gxTrs17UUGxsTLeR3O2uP2agzqMZmwv40SflPfB6HtOeKYtvZI14/gRpWKuPEr38JTr8RVux440s9JoTH4aZbhkUGWxyfIjw16GKThNl51tE/CMJNKRYWvNH7xAXFylgvpdFeUK0k4r8W033AqeuXxgej2FtbsQphGrxZekx4tGdzvcH+EoTDXS0tYri+weIv9w8e6uklmmg3oth3sWIV8imdZg4eR1fjEwnNft+n3OKCmiqufS3AF/u+DdlrKHath7PeZ7MY5hO+nE98hm+r8PHfa5ve4lPOSUX45B/gMOzp3rLwyT8QKNZhKajEiS+WDDLclS8WttBswgSf/+CKFSsfHv7sI4cD47CRBOFRTQk0BAm+2Cc1XDgMe7C/8tuinCE3fLHOFAKf5fzFyLAlCnd/RaycOboYyL2WYuum+X8stY2Hwy58WVsGGw8TodArG/uUm/9FbWn11PXj22YTtrmjfMBh43yxkxaH60VQMWhh26W5z1dMwEsu+nUtxebmZDbUET1Ve9OdKxVxsBe6lkzCWO5c3NO5uKcwAxBcUOy2qHH4s4+MOiszyZJfSuh/AaWsvth16wA41mbni3VUF6Fq+9PbWbGi2qfihucEbVOt/kLcyPCuul+vu37at3ZF6Rc0qFFaxhtVimW/oMFVzZVFcG5Ksbd7n7igWGUxffzrfzUbdZZANqN27MU/r1TEgr5f+GKdvjQObv4bB2pvasX25f479KoeX/hiMemlLxbnprX3xcr5SdabaNRtyFuM2xLCPbU/HRyUhTMFJr3FrdPTO0ePFpwaLMjA40YUu7O5dMUXOzt6vsAICComOFztfbHLS9afycGuSioVHx/Y/MGwMc6E7bWFzrY6bIXY31FBj2Cok1BqTSPtbKvb0DldJujMqEuIj+vrtsV4Qw3qpSk6nb61ev23CyxyC+Eail0pY454/XS1M293os0SJ/zwx5o6qyMBVDZN++Mk5YiMhJ0AACAASURBVJPNofLN4UoYTrKQ8nr06f9c7yvaHq2bjfxc7P0rAsU6LLU307U5XLk5XCl++Yu5uKdABpEmmnpCRPEPDhTXvyC2BNWbw5XrvYXDn320UhoFFIIglLGX/+KCYk92lwSf/3AhzRsUAa441+BmgojiWUtEcWRPE36guGyc9yk3v2pyeGBxnNxW+3llkcGNbzoXCoM66r+sK+9fEA8pJvxaax7XcM8ufkXXUiwIL6qcHBpSTJyX1V8GNrumWOOh5vfcgl9z2HDs1zUU51NfAtvrH9WUdMyJOqSjXtXc8KsRxX4tNV3zo/0L4ic1XFLzlYhih/26lmIHelujo5mE9UhBpNJKGXNnvGVzqHzC5/9ImTZzx8IZ3Ejho79f7yvaHK7cGqkBnXJBsad65djLf5mm/WFzqHylIpb/1++t9VgHAE92FGPP/+lKRHHqazxKDuvCZ3AoO6TY/dVRTFqJSStHq736cv8dyHodH2qQDcZ2pP3DykQBuHS0Z3F1b6t6WxK/N98Xsb7QIOcntbJ+qJlya72z3U3b8CxeBtW5oNi9TUVcbAzhnXi794kLij2QD/P/8r3FdJ/N4cqFlNeCz38Af62uXxq3+I1jc9WYtFIzVdSc8LGMFwXgPTNaBs/xw79mE4YfKF4cTmhP+YlckKyTlAsq/tqd9b9h2Nps10VEsZiNzVWN1X+JHyhe5Cd1pP3D8ljW2kL9VKt/K+uHB2vEIQR4x/ECvEenBh1+YH9qWjgxNSIcs0QUN3W2TEyNTEyNgKXQguOTHQ4Um01Yaj4nNMkSUcwX8kISU7OKbeZWFC6iODo9C4Y7mU1YWkFhRErG2Dh/YmokkZ0blpRKGIxtb6llJSU4W4gNrIRaVJiL79eGbh44UAnUW1FWRKfTqyuvBGfgC87NCOh0uk51xb8JMsxLRt7r0omglmso9lSvlGf4jX7xP4Y/+2j06T8u5QbCoANQfl/Gm/D79fCf/274s4+kUdYAiuMt2XzClyNePxV99b90rZkS+l8IFOuwlIT+F/w8RSCDd9+ZQaOuTrBMtLXMi/3PbZE1GgUPpb3M/4vFf0w4wIRF1xRrNmHrvYWiZz8HZTW11wcaHOyrY/pbf88teFhdMqq0xNDCiKETg7ZobMCzqvhTbj5+XuyZCTsxaAnH6cX3uMVr4lwhmD/6pzLOH7j5YV2N2k2rs+RaijWbsExB9++5BWCCLAiSMpsw1xR7viJMUEe9X4uVhADOp0YdoeUnBi1sPJwX+6cyjv282F7ZmHeTZV6sv6N5sfb9upZiDXuqhPi4kqJ8wkKj2oYU8ctfDP/570a8fiqNfkQIIzjeXphleFrC8T77aMTzR6BfLijWclMUIxL6X0a8fiJ+/Utto80VcnFJMBv5ueWZ//LniqyAkx1blJllSR1Hddk/sYQUhxS7MBgLp/FAQdpjW9P7WL80Vv8lXHZxW2mNo8akFWBebF/uvy2LMgh13e7UBcXK50R0Ol2OC/Q7dzrc7n3igmLNJmxLUDPh92vLjPmA3+FnzF/70rjpb7wl8fsQcCiAGTguKPZiXmx0T/Yv2lN/ajcvVjHe9Ko99We97F+uLdTjKdYyL3Ywtpf9i7aUHw8Vf7qBm2h7uzv1KtSyyCXhMF7E+bugWP3OckEFmBebQJgXi2nnE7JzSPSY2Mzs4ZEBPMVezotN8IuMyywqXseIZmJeblZertM1ASfHBpjMKMJMd5N+JSM9NS2VdXg51RDgIBjqZDKjRgVXJgtAiDZ084kJ8Q5n7FjiP8Z434DVnWBnkHBTBLrnRYS1IB5w2F/Wlt1Uz/vObzrU/p5b0CCxTZk3m7CkwXb7xqcNE4dxCG0DHwFz7yGKT700FRcbk5KctDh3ZVIZoQHo9IMhIBjqpNPphBfiB6sdVXSfEYiNiW5vsU2SfE9NBYNb7OwMZw+hYn6MTqfPTg0b92xLatx5Y66xYu+8PqQQIrC3vyJflREOdxZ2gBo+jMBbFP9HYQ6YegtrXNteIrRcvipbv27rKIKdDbXdibC7IW9tqnYV94RzSt1JjUiJCwQa6yrepl1xKrnIjC59dxDY3ZDT6fTp8cH33eX62rJhXofraa/1tWVg/JkwAHaHbUMUa4sFuENYv02qInqaKO1388n5Xin224T5t6AveblZtdWl34KOoC7cLQLAg7BpN3p8t7W4r21vU7GimCR4i90vfm1ORLGIYhECCAGEAEIAIfBeEEAU+15gvfbTBmVACCAEEAIIgW89AohiEcUiBBACCAGEAELgvSCAKPa9wPqt/zRDHUQIIAQQAgiBaxFAFIsoFiGAEEAIIAQQAu8FAUSx7wXWaz9tUAaEAEIAIYAQ+NYjcK8pNoARXVhxJe5/Y3XB04csHh+60Y2hs5LxRcISkvCnF6ub6k4NWsLhugqt+spGvkcHGngcX6wYbF/85FDLLilUXW71ap+BkGLUq8MSWQuyazaXLawonZwWnBq0OxfLPA2P9NW31hNUgdPjQ23027druPU8uTUVE1NX1pQAOTdWF/zoUQ6VOEsUiQe7+jvA1Y7eNp2GuAS5w4IFZSXDI1f2V4fZjg+1da0NoFMw0WzCWGy2RGLb1Ah/Sb+zzExLwy6qbulsHhL04q+6kAWjA4QnzUVmdAkhgBBACLiJwP2lWIV80oNEXlyYwPekoa3xOTXUGYfhcwpFPA8S+dqDwrSsFF9aU2GfUyq17UAHaBjqVy5NP6OEzMzYXvQvAsOgBv9IJsyJFxraGl8GhRmuriTiej5WWn5uTHo6XglB1qqlXwQE72zKZTLxa5pl3/vG9sbMQgdr/ZtNmEI+8YxCO7n8AjgxaJ9RaHNz1i2X8ZrXMdkzim1NvtySopfB4f6RTP9IJiks0r6DZ0YdhRnb2WfZdXJVN/fQl7p6uVEBXq29XNNcGxRj22gTn2F3U8Fis78ICO7sa8ejFBQTP+bkG6ugrCQ0IREoEYkHyVEx+IJ45Xh5a33xK2pIWELSwdW12fB5kIwQQAggBG6BwP2l2OKqcv8IoiFFYcbll9qWonbR4TOjDpqVoQmJI6M8eBoclwBPIVtX1FdV1FuXpH9GCdGqpSw2G7ImECrqq2GN4onhZxTa4oLVxPyKGgJIZUkxac9AZhMmEg8+9KUSFHqQyNwa67YbUDNekEpFdFayUW9bih1/1WzCsos5wPyqa23I4FiY1QXFdvS2pRfkQQ1zUtEj/8CDXRVEBi7MbU+xA8PWVUDVKol9B8XjQ19RQ8CSp9zq8gu6Uh3s2g7wYWHaV+u3l/GHSjlDYcZq1VJ8oulyfwKzCRuf4DPT0k4MWqN+BRzU6Di+sB/I+E2yZPNiL1/qM0oIOJ68CfLys50+o4Q0tjtY2lq/vRwcl9A90MliswMY0YTBCYgVEhACCAGEwC0QuKcUe2bUvabRq5uuLD2/opzxIJHnrhqXLvqs08yBN3t3fwd8dRr1KyXV5Wu6eUiuQIM9xRr2VP4RUYsLE+Dtn5yTA2kGFBkS9GpWZs0mTL+z7OVLBQRjT7EnBm1DW+PjN4GvaHS1ypLfsh66Qcsp51Kj4/DrZ0awUuw52D4lgpUClGhWZr38qGBclJGSap/Tg0TWby+bTdiSwjIkgD/MJqy4qhyf4kEigw4GxcTDdKGIZzZhuSVFr2l0clQMOSrGlx5FoNgzoy4skQU+UAx7qmeUEFgcCr7hDLMJq2ttgCkuhLrWBtBB+P/oQOMwP7TXlxVTgFlhkbbuFngVJhKEnU15WEISGE8+NWhzucXPKLSRUUuX0YEQQAggBN4dgXtKsTMzQg8SGRAY7GR5XRUpLNKdoT9QpLCiNDI5FdPO+9GjZPPWraDUKolvOGNgqIfOSt7fsWyECY6K+qqHvtTHbwIfvwn0IJEBJafl58IXrn8kc8WJG7WwojQ+w7p1iXJp2ueCTkA7Tw3a8CRWeBJLq5YO8nte0+jd/R0K+WRYIiv67VuCo3F3a2lrfVE8PvScGopp57fWF+GxvDTl5UudnBZsrS/ubi0Bkg5NSPQgkQ92VWqV5EtKyDom29mUVzVUp+Tk7GzKwQGasaSYBEPi5zvNAbra31E+o9CWl6YgAjHp6YLRAbMJM+2r1SrJMwrNqF+Bdi3MZi+097R6kMjjE5b91Djl3ISsTLMJe0WjQ8zti5hNWEtXS3iSqy2M1CqJw3ttP1C8vSF/Hhgal57x0JcaFBMPDu+QiK+oIfDUfrx9cloQnpS8rLAhYNk5WDjwFTUkJD5pevr63RId9gslIgQQAggBiMA9pdjsYg4tzupUA209M+pIYZHldbbtRWEfnAknBm1ceoaXH7W4yrZfN6DYM6OOXVLISEk9MVj3Cra3Ys0mrKm9CQwO720vPXkTBDLnlhQBi6qwotSoX2Gx2d4hERurll05zSbMsKcihUU+8g8khUWClFXdHKTbpo4mUDY4NgEWsW9/aEJi92XoELha01xLIKT61vqvqBZ78WBXlVtSdO6GBDkdDhTbU2wOtyiriIOvOiI5RTxh3XQdDhRvrS8+CQiiMON86VFv8/PqWhu8Q+gUZtzzwNA+XpfZhElnRU/eBD0JCBqf5AtFPO8QOvgCuJZiKxuq4zIsZOzwODFoA6PjKMxYgkfcsrOeI1+sSDwIHORQmwsrVquWphfkefpcMeuhlVxQVpJfWvzQl9rS6WAbZ6gfCQgBhABC4FoE7iPFHu1rvqSEtHS14Fs/JxV5kMjuh+OeGrQtXS1PybRzwxRfakU5AwYtjw+1tc31cLjYIcVKJEJGimVbUKGIF5ZoNbkMeyr99nJZXSVwgvbwOvR2O8zgza9V3dzIKK+grORlUFgAI7qpvUkkHkzJzXnkHxgSn1RRXz080qdSzsAoJLMJGxnl+YQzIP0f7WteBoUBExNiQgqLHOT3AIrt4XXAPrpJsSvKGbVKUlxVDusNiU+USKw7weEpFoxLS6UiQLHdA5Yd64qrygHFhsQn1jTXUZhx45N8TjkXGn+vaHRIWh4kMvRzw/bncUtYbDbeBQtkmOHkUNvY3viMQtvbXjra1zj0xRr1KxBq1fK0Cys2Itk6un5i0MamZ+RxS5RL01AnXgCAqFUSFy5w2EgkIAQQAggBFwjcR4oViniePpStdetO46D1+aXFcKjTRX/gJb6wn5Gaurw0VVxVVlFfbR+7BAgA6nRIsUb9ypeUkN1NRVJ2dutVyq9pqgMUW9VYg+cSID8l00B4an5piZcfNTQhsaS6nOBF1u8sD/J7CitKwxJZ525OfKTxqUFLYcZCV3RVY41/JBMyLujjgmz8xKAFFAt77SzcCfhivXypXr5UEHUFisRnZMB4K3JUDIzfXsdkT8m01u4WoYjnmmLVqpmLcGILxeKb8YpGn54egdQFP2VgnqhUB87jc6xgBiCAzxdnt8+DRIZmrmrZEuYNi7uwYmEeJCAEEAIIgfeKwH2kWBabzUxLw3f75FD7nBra0OYgIhSfzaGcX1ocnsSCZlDvYKcHiXxho1giVGHwakV9FZ4pYXjU2/y82ub6p2QaiBuCVUCKPT7URiSn9PA6IJ3UNNWm5uWAnAe7KqNeHZeegVdOkLfWF6FaKCwvTT1+Ezg9PSK9iPuF5AczAHcsoFgXcVKMVIsVbj9QDPRsrcufUWgymcVR7R1ijcaamRFmFhZ4kMiM1NTp6REQ5USOiskvLW5qb4KnIBIK6AFWLL5trgeKz4y6LykhIvGVPSPnpKJXF/OO8HrOG4b/2OKUc8G4AiGP2YSplqc9fcivaHRnh3dIBL4UhRlHuBHwFA0R44FCMkIAIXBrBO4dxR7sKh/5UfsHu/FdEo8PefqQ12++xWBrV8tX1JA3uImqhRWlnj4UMIMTX4VDK9ZswsQTw15+VPxcF1AKUqzZhEkkQp9wxtG+xhJdvL38jEIjrBcRl54B39oDwz0wJHhrfdGDRHZIsWYT1tzZ/DIo7OvQiIY2YoQtaMPppRWr31mG8U2EcCcQ0uWMYs0mrKGtgc6ybJ395E0QILPErKyL2FqbRQiqa+lszi0pwoMGZYcUi7diATgwv1o160Eib29cGagYHePBQQWYc0E2DhfB2N1UPH4TODtrma9s78ne31Hix9IDo+Ncx1tRmHFw7hactnR0oIlJT4c3CzYDCQgBhABC4BYI3DuK7R3sBJM18Z1Jy8+FtIRPdyEb9WpOOffr0Ijp6RFoG50cal8F08vrqoJjEwhlr1IsLY9bMjVtWfZoY3XBg0QmUL7ZhAGKPT7UAoJksdkpOTmmfTUjNZVTziUovx3FKpemH/kHevlRHZqweCsWX52bvlhYxLSvxjRzRv2KB4kMiRD6YgeGe56SaU/JtCdvgoCR9/hNIEhhsdlQiUOKhUahB4kc/fYtzGw2Ydzq8uA44i3o7u8gZDObMGZaGhwwL6utBEb54a7yZVCYQj4Jdb4KpoNWgf8wlOmRv7W1IB34j0EpCjPO4RIW+JsF9SMBIYAQQAjcAoF7R7GM1NSUHOsoK+iPYU/15E0QIcL22q6297SGxCetYzLV8nQAIxrk7x7oJIVFHh9qAxjR+FFK8fgQIzWVHBUTnpTsH8n09KHkcIuUS9NnRl1ceoZ3CN03nIH3lVootrk2JTcnPCm5prnWbMIOd5XkqBhSWCSdlQwDiGAj49IzngQEvQgMexEY9pRM8/KlAhmEBNtbsWdGXXNn8yP/wFxucW5JkZcftb61Hsb1QLXQioUpLnyx0EAEk3bwRc5N2BXlzHNqKEyEFAtSjPqVuPSMZxTay+DwsETWwa4K5gSCQ4p1ZkRub8ifvAmy/2qpqK/K4V6xkiWSUcsQ/UU02dqFe1itmgE19g92U6Pj7KHe3pC/zc8Liol/Tg1NyMz0pUfhbzS+2Yhi8WggGSGAEHgfCNwvit1aX/T0oYyOXZn7zxvu9fKjElyh12JxatCCEJvzcUWwqN6qbu4pmQbWGRgbH3oZHA4HG0XiwbqWevHEMEgBqztd8GidTzhjb3spMjk1OScHH7OTlpfrQSLncovBW14kHvSlRz1+ExgYHUcIazKbMLxh5Hqg+MSgHR3jhSexnlFCoLNzkN/7lEwLS2QJRTw8qdyIYvE2pQeJTACwd7AzJD4JJuIp9nx8PjQhMS0/t6GtMbekqLKhOjgugbA+4o0oNoNTEBQTj1+YCdSbmJWFHxI/X58rMCa+psnyBXNyqGWmpSVkZorEg63dLSXV5Sw229OH3N7TCtu8v6NsufALcKvLjw+1vuEMqVQkmxf70qPiMjIlklHCNwoaKIbQIQEhgBB4TwjcL4pt7mx+RqERXr6x6RlgNYPbQVBSXZ5bUqRWSXzCGXDyqNmE5ZcWBzCilxS2wUao/xklRK2aLaos+4oaApYm2Fxb9I9kRiSngIkcu5uKR37Utu6WowNNU0dTYEz8M0pIZ1+7YU9VXFXm6UOhs5Lbe1phDHBceoanDwUE9Hr6UDxIZHxwL7Rim9qbvEPoT94E5XFLIP2DVuk0c9nFnMdvAl8Gh0MeuhHFUpixeI8jULu5triGyY72NeFJLPzKlFq19CtqiH5nuaiy7IuA4OKqMsskqEtfbE1T3VMyra7FttmAmxR7dKDJLy15RgkBK1KBZS4Me6ozo24Nk31JCYHhwWYT1sPreBVMB4MH8/Nj50FqXwQEB8XEp+blVNRX9/G6OvvavUMijg40u5uK9IL8x28Co1JTpReeWrMJAxQLZio3tDWSwiK/Do3gC/vhXUbhThAKJCAEEALvCYH7RbFBMfHskkJ8V3c3FQ99qc42Y8HntJebOpqeBAQFMKLVqhkwoou3Y04NWjCZx75geBJrTTdfXFWuVkng1d2tJchtZhMG10XKKuJ09XfgV5DXqqXldVfGPOtaG+CqDlCh2YTt7ygzCwvgIlOdfe21zfV725bFmxwee9tLje2N0Mo/t9SDYuIJI9i9vM6y2kpCcf32skO/o/RitrEHifwyOFwht+64MD094uVHTcvPNepXCitKYXA1pFizCVMuTeO36EnMyoLcBqoOS2TZf77UNNWGJyXjt/pZVkwB89rTh8Jis/E3aG97aXLKOhHozKjTrMzir4Ja8ktLtjfkZ0ZdbXM9YZ0mZloa7JHFDjZoR0Z58GvGMrSQkYnfyAEiVlhROsh3d4seWAoJCAGEAELAHoH3TrE7/8/H6EAIIAQQAgiBbwcC9iyCUlwggCgWfQEgBBACCAGEgLsIuKATdMkeAUSx7j5Y344vUNQLhABCACHwLgjYswhKcYHAh6NYF41AlxACCAGEAELgPiMAWfk+N/Ietg1RrOPAont4q1CTEAIIAYTA3woBRLG3Qx5RLKJYhABCACGAELgGAUSxiGKveURuBxAqhRBACCAEEAKIYm/3DCArFhHz3wyB/e2lxTnrDrW3e3xRKTwCpwbt7NQwfv0v/FUkIwTeBQFEsbdDD1Hs34xgbnfDvjWlhPxuJjOqkHNlPWqzCSusqiAzEzbXHGzwd8/7fnKoDWelxWRk/a3aeXygiYiISE1hqZem3lMbcrnF1Og4gnI/elRJdTkh8Uanc3Nj+aUlNyqCMn9gBBDF3g7we0exazpZbGb267CoFzTGm6j42/UKX2pGIgpNTHlJY7ygMbJLiHvg4HPeQ1m4PPWouuTXHPYDDjuip+kettBZk6RaaeXkkLOro4IeOp3e29Vo0q8Q8mSXlHxNj17DFgjp73ja3NkSzrqyCfE7KrQvfnygpcYk3rSWowNNTinXJyLmxcUjqlXP2mt2P2VnfbGkKD86mrn6bnoc1nh8sW1zY/uVbZsXF8Y9SGT7lbwcanCWWFFfxa2pgFcZqalwSe2U3CsfYcVV5V9RQ/wjmfbHFwHBLnYhZKSk4pcIhXU5FCamBP4RUWC/JsKuJA7zu0j0CWfcbqNrFzrNJuwOW+i6IngVUSyE4kbCvaPY3LLSkMRUweigeEIwNSN0pzN7W5qFuSXDrtZhZkpMUmp+wdg4XzwhWFJMO8xzbxP/Ul5E7ajrXxAPLI5LtdJ72077htVMDf+5/MpamDDP/vZSdDSzq922xDG8BIT3MdR5VxSrlCs1KuJGQ7D9pwat/SqP8KpDgcfvexXK7BvqFU8IxBMCwnKYDou4Tjw51GZnpXMKrjCT6yJuXh272LaZsHp2YUUp3MnKTT34bLJ58UNf6jNKyDNKyJOAILBDIiMlFaz3OTDcY0+xVY01eA1QZrHZd0Wxr2j0mPR0weiAUMRbXBiHVdxCeE8Ue4ctdLNTiGLdBIqQ7d5RbGxmdmVDHaGVrk9Nem1EjCCX4+CXcHygfUFj4FfTda3qXl09OtQ+4LCH5A76da/a6bAxLigWDBEb95wSlUOF75jY1Nl6U/vSYY1DQ/M+VJ5qadnh1Vsk1rU1RaZm3KKgiyJzMwI6nb6JyVzkucWl1LyciOQUfMFTg/ZlcHhN881+sHgNsnlxWCLr6EBzZtQJhAOAYinMWJlMbDZhDin2VTA9KCbe/nhGobmi2FR3rViw26OzPRDxjXdHfh8Ue7ctdKcXZhOGKNZNoAjZ7gvFnhl1B3uqgz1VdHpWaW01kN3/olctLftQeUPD87B7x4fagz3V7tbSCxpDODYIFJr21TCDM+HUoG3qbKElpPhGxiXn5cNF8M+Xkg+OT25ob8osKibRY+jJb2elImdK8Okmvda4d+U4ObzGAXxs0On31Vu7ygccdve8SL+v1u+rjQcaoPbEoC0c6/esKvk9t4DcVru8Zh1TxbYUDzjsNqnwZUPlf5bkvWmt0WwqYEvmtHPeTZW/K879v8W5fq01y2tuvX/VG3L/1ppPSvK8mypbpcIHHPbOJTXu6VfiB1o/Kyv8Azc/kdd+sG8d8n3ZUPngYmQb/39UafMO1tWUFRXmwoZBwS8yFgyWvqAx8LstbawuvKAxeII+RmqGT0QMKzdvfdU2jLy3vZxfXk5mJpCZiYVVFfi9bGckonBWmk9EbEFFeWNHM55iterZ5Lx838jYoDhWe2/HjUzP3ILxyFiBSW8bNVlRSWDLYzOzYY9cC4aLB76qsT4iJQM8nwcXmw6BUisqSVJOrm9kbEhCSmt326nBWh1fyPMOZ4on+cHxyX6RcYVVFWD3J3xdR/vqiIiI6fFBfKLZhMnnRExmVBmXQ0h359S6bfNAJz7z5LTAg0SG+ybhL7kpA4otq6vkC/sBxR7sWvaH3tmUm02YQDiQmJ11ZtTBTauKq8rdt2LrW+tf0+jPA0NbulqYaWlwoPjUoK1rbfClRz0JCGKmpcHfuOWlsavc2ZR7kMhDgt6DXeXBrtIeXvuugQ2e/SOZXwQEh8QnSSS24TefcEZNUy2Lzf4iIJjCjMXvPMEp59JZyQ1tDc+poS+Dwyvqq699Dl238MSgrWmq9Q1nfEkJYaalwV1M1jCZB4ncP9hNi0t8EhDESE3FtLZX5eLCRFhC0iP/wMdvAiOTU+GWzIRuIoolAOLm6X2hWK16Fr6koHAjX2xXt9Q/aBDTWG2jvqEeqAcK7vhiW7vbfSJiOno7xib4rNy8wNgk46W/MDg+OTQxZWJqZE0nK6ur8Y2MBbuFu8aaRBn0DuDhj+7ua4Z862f4eH4CMvTFcsW8T0ryyicGBxbHA9pq/qui6PDi0wFQbEBbzZx2TrEq82mu/rqpCrTtzIT9paIwvKtxakUyoZKQ22q/qC113Wxw9VVj5ZMabv+CuEM6+ry+HE+xQR31X9SWCpen+EuTj2pKwrutruIJ1czA4nj8QNsfuPkDi+Pg2NpVwupKivLrahzUPjUtFE8IalsaHVIsKzdPrZrVqqXMt5kJ2bZR0JT8gpDEVL6QNzwyQEtIySwqBhXtbipI9Jis4pJpyWhrd1tIYiqkWMOeihKTlFlULJON8wR9PhExPYPdsHnXCge72pBIPrfctg3i4d4KGOZN5xS6T7FvouLhkwkF4Is92FORmQkpefljE/z23o6v6dHd9rLmkQAAIABJREFUvC7QML6Q9zosqqSmGtPOz82JKdGJdW0OnPTxcbGCoSt0aDZhw7wOOp0eFxtzbR/tMwwM91i2bd65Yr5nFhaEJdi2GbYvdW0KoNjNtUVqdNzwSB+LzS6qLItLt5r1a7p5X3rUi8AwuHdycVX588BQclSM/fGUfMWKFY8PeZDIVQ3V45P8rKICUlgkpNim9qanZFr/YLd0VhSXkUkKiwS/8Y7eNugDhoI7vti27pZHftSaprrRMV5afu7jN4GaFatP3Sec4R8R1drVMj09wkxLe0ahwa2vOeXc1zR6TVMdpp0f5Pd6+lBGRq9slW2PnusW1rU2fBEQ3NTeNDLKi0pN9Q6JAFYKoNio1FT54qRKOUNnJYclsoDyM6PuNY3OYrOlUtHsrIiZluZs2B9RrP3tcCflvlCsUa+WySZksgl68tvsEi6Q5YvWt9j+jka/fd2xpUlKG41NEh4f6swmbHtDIZNNzM6OvaAxWrragEKt5hpuO4csNCm1ob0ZYHe4t/I6LGp8UgBOg+OTy+qqgXx8oH0VarsEEh3+VywsyWVXju31a4zp9Z3lyRXJ2PL0Aw67RMybXJFMrkiW162m26OakvzRPlDX/r76t0U5gxeDyYBi+xcsI2xmEzaunHnAYe9dfB9s71kM4qkV6958W7vKUeXUqdEClIsDmNHQAG2SjECK3dhZfsBhi5UzoLhweerXHPb2no1HXQwUFxXmNtbbYlsIDTj/gnFIsWPj1o3txJP8FzQGeCdubyhe0BhS6RhQMiMRvaAx9i/oXDg29Dos6mjfavrnlpZCihWODX1NjzbsWc3u2paGiOR0oOFoX3f9k7atmRhf/DqANy4mhj1XNta5T7HyxUmZbCKvrCw0MQU8nzLZBLCZhGOD3uFMfAsjU6wt5At5L2gMuONhY0czvIRHMikxfpjXgU8xm7CjffXkGA+7fAwIV12fxqSnJ2ZdCZY26tVPybT2nlZ8Qf328uLChDsHYBpAsRc/WDmwYtcx2e6W0/0c8XW5lnO5xREs67D2qUHrHRIBKfZNJLOqwfpDPthVPvKjAgrfWl+Uzoqmp0c8SOS6lnrprEg6K4K2oIvqgmLiCyusX41nRp13SATc+NInnJFVZB022Fxb9CCRxyetTzKnnEsKi4RqLwKyrgmrdt1C/0hmpa1fKi8/Ktj4ElCsYHQA1CWRCD1IZPC1tLup8CCR4T7NO5vyyWmBQ2MaUSy8UzcS7gvFwkZbfLGNRNeOf/AQ3gp0LQ8O2sZAjg40F77YEaj/WuFVKFMwahthC4pjdfZbDYjg+OS2nnao4U1UfN/Qe9xY1AR8sQrrNq6w3t8U5XbO2caoP68srpocNpswQLEwKmp5TfaAwwbEfGrU/aW8yLupsmFGMK6c0bsxYG42YYpViwbVupVIJlQSSLESzewDDntz12rTrG0vPeCwZbo52Mg7p1iF3DrUvKSYfkFjgFk98sVJKJtN2Dome0FjqJYtxN/Z30WNtRlYTbiI4tbudki3ZhM2MsrzibAadt3dUtdPF/4qLWL41HDlM+VGFAuwqmttZNj5Ylu720MSbF7P4ZEBn4hYkB8MFEOc+4Z6AqIS4CkUHFIsvHpTYWdT/tCXKhBa39GgOF/Y/9CXCkZ0oUKBcADaf64FgXBgdIz30JfqQSJ7+VK9fKlgz+CapjpCweKqMnBzCenOTkGTErIy0wvyYcMik22+WC9fKl/YDy/50aOaO61f1RcfIhoPEvlGvtivqCFd/cQPGqDfJ5xR32qL7HvkRx0Y7gGXOOXc8KRk2IyS6nI35z4d7TtuoZcvlTdseyORwiKBcxpQLIzbUqtmPEhk8OlwatC+otHDEpI6+9olEiF+32vYMCAgiiUA4ubpN4Ni5fNLC3PXH3Gs0chYgXHP5iS7BcW+oDFGRDaKxdMqXjabsAuKtf5aXMB9C18s0OaMYoGDFtboWVVcNm4ZX3JMsZc+11mNlNxW+8fSggcc9m+LciomnM6ogZrlVyl2csVGsUD+XXEuPB5w2JDdzSbMNcU21DmdRunMioXR4IBiQVyrTDbxgsbYWrf47cwmDHhtQc7Ovs5AHMXiI4qbO1te0hje4UxwvA6L8g5nAg1ba2p3nrT+/jnvAN7QkO1jDhS/K4pt7mwJTbRRLJ5W8bLZhPUN9Tj0pyQlxvMHiQPF8M7eVGjrbnlKphFCGRKyMmMvR3RvqhDmn5gSACUw3GlnU/4VNUS/s3xq0J4atDHp6ZDtQMqCbFyzMgvkR/6BapUEyPA/UJ6QmZnBKYAV4SftWEjdj/rIPxAcnj5k/LwaZwQGVdkLzyi0bucUi1f+yD9wYMhGsXSWjWLt1TpLcdZCDxJ5kG+jWBhp5YRirUNQC7JxZlrac2oogKWpw4HfAYU7ObsX16Z/Myj22m6YTRh/WOYbOKhW2sYqLR+kd23Ftna3wca8YcT3474ZYTpBuIUvFmhwRrGurVjJ5WD40tqCxYq9DIaCrdrZU2UKun9blLN3GaAELxEEAmf3L4gJVuysRqpaX4SH6dD2ceOCYivKiirLrR5TQo0XE/4cDxQ7pNhbW7GhSak6zRw88NEf9k0ipJj0WkbcSH6Rg0jvu6JY11bs67Ao2KTewR4y04EVGxXFGBPa3rYw/+2EkPikzMIrQVL67WUvvys20+00Dwz3ZBZyapprR0Z5MKI4OSenpasFWK721B7BSum5HAN//CYQBisRGuDaij3/aNCszMID72N2RmAE/fhT11bsB6NY11YsCNI2m7AVpc2Kxfdib3upuKrcy4+6v3PlLQryICsWj5X78reEYnUrSr+gwYEBolVxC4oNZ6VBX6xhT/U6LArO+QmOTy6osDoRD/dWXro3HegWvlhw/5xR7JMaLvTFHuyv/LYoB0zsAYzYJrVGM/IVExZf7AWPbu4oc4W9MBh4+YJ9lXbsS3huTo26zyuLQzobtveU2JbiTWsNpFjgi52/HBne218RK2eOcBRbN83/Y6nNhsBr7u5oSE2xRlvg04F8Iyt2Z9MSMW7zxc6Onq9YAoKKhWODLnyx/oy448vWrmMy+eUotH177FOKSyfo0QKH87DvimJHxUNXfbGNcGIP8MWuX07IqWqqg5dgU9c0UjqdvnzplYfptxMwzZwHiTw1bY1IAEq6+zuevAlyP+bfWdXNnc3cmgrV8jSdlQwpViGf+IoasqqbS8nJqWmqxZfd3VQ88qNCu/bxm8CHF4PMYKjZy5cKkcktKYI2or0vFtpqZ0adRDK6vWEdCLndQHFQTDyn3Lqsjb0v9oNRbAAjGvpiD3eVXpdAASu2/zKmDwSCAR7d3pCX11VB57daJbkYQ3aw/gmiWPxz6L78baBYk14bFTeSW+DAqrgFxbb1tPtExHb2d4knBMl5+UFxLBi1HxyfTE9+29bTPj0z+pbDcTOi2P2bQcjpjGLLxnmfcvOrJocHFsfJbbWfVxYZLubzAIr1a6npmh/tXxA/qeGSmq0RxQf76k+5+ZE9TWPL0yLlVFhX4/9XysEzIqFqeDqunAFjy59y8wtEfZBizSYsqKP+y7ry/gXxkGLCr7XmcQ33DBc8BYKtKieHhhQT5xnw3l+VfIJOp8tx7mSzCdvfVU5MjUxMjdS1Nb2gMcYm+BNTIzKZ5Z7ih3/NJgw/UGw2Yan5nNAkS0QxX8gLSUzNKrbaxzubS1/To0FEcVuPxbUJ/a8gojiruHhaMioYHQyKY5VUW4GCHXcmCPgyy7xYxZXAWkw7DxqfXlgYzkoDsjuxdWYT5tAXe7i3QolOTM0vEE8IOvo6SfSYHp415pkv5PlExGYVl0xOj/QN9fpExNbbRRS3t9TGxcY4XMEjLZXVVF/prHcO02ua6l4Gh8NZQyBPBCslLd/BzCuHGlwkFleVNbVbRibLaisHhnvAvFizCauor/YOiQhgROOnb5lNWGlNxWsa/evQCBDw5cKKHbuMKJ6YEthHFAO7c3JakMstfuQfuHr5sXg7im3tuhJRfDF8bYso/mAU29DWCMKqhSIeMy3t69AIEBUIKDYiOWWQ3yMYHQhgRIcnWb9xDXuqp2RaSm7O9PTI1LQgKTv7eWAoAXNw+xDFuniMXVz6NlCsdXUnnAsWdtghxZ4ZddBtgxdAqYt5sa3B8cm+kbH282JbutpyuJbl7tyfFwsbc1PBGcWeGLRFYwOeVcWfcvPt58X2ysa8myzzYv2vzosdU06/aKgA82JfN1bOXC6wd3ox6fDEoMUf+GDjY4NOvSE3HGjEFyHK0BQG82L/VMb5Azc/rKtRezGREd/HTEH377kW1y8hEspswkqK8llJCVurtrm5ixeBS3DuChCY6ZYQVtcUq99ZLqgA82ITCPNip2dGL+bFxuSWlta1NUGKNZswrXqWlZvnGxlLjUmsaKiFgcf49juUlXKl1m51p5auNkLLX9AYNc2WIBf8AwZlfMSmQ4o1mzDNyqyzebE+ETHTklFaQopfZKz9vNi5GUFERIT9jB2zCdvbVNDp9Jv6aAMY0TBcFmCysbrg6UMWj1/vzneIIT4xMCZ+csoaYQut2JNDbWlNhQeJ7B8RBYN0zCasq78DOF/Laitf0eh1rQ1eftRlxRSB/qH+upb6VzT6c2poQ1sj3hdrmRfbUu8bzngSEBSWcGUaqzOKBXNz8b+RkwtXMajr1KBtbG/0j7BMtA2JT5yetsVXQocoyOmOL9Z1Xc5aeD5x/2JebJ1POOMpmWY/L/Y8wis04WJebMqVebHT0yPBsQlgXmxIfNL8vDU+H8IIBESxBEDcPL13FOtmu98l24ho0P6FCKdtuNAcHJ/c3us4btBFqQ92CVixc1pbWK87VScNttvPwU0bdhAp0z0v+k1R7vHVGFp3qrDPs7+9lJmRFhMTPTRgi9C2z/YtSAlNTLF/2MQTVwZdb9RNvpD3dXi0wyKnBm1leTGdTm+sr8CzOMysmB+j0+kqOTFGHWawFxTySQ8SeXHhSpGGtsbn1FA40m5fys2U3a0lL1+qfnsZkErvYCeLze7hdZwbr4Ex8WrVTEV9tZcv9Xzq6s6mfE4q8vSh9F7GcEkkoyk5Od4hEZ4+FA8S2dOH7OlDuTjIyqW7Xyd1kN9rH8BMYVrDvN3sr5vZ7ryuy3CnKzfRzcbAbIhiIRQ3Er6LFHu+fMyKSkI43Al4IUQU3wjoD5CZEJ3kZo1r20vyVRnhWL9cYeDoUAtGejvmRA+rS6gdxPlUbtZin+1oXz3Y33bTQUt7Pfc8RaeZIzxpKyrJ4eWU3Fs0nhBRjNdwfKApyGfPTllmcDk8BEOdkZGRR+5N2QIaiqvK/SNs0VUgkcKMy+NeM4PTYQMIiYsL44nZloGKve0lLz/LSsU9vI6Wzub+wW44yq3TzLVehD6dGXVwRilBj1G/crCrggfh6p2c7u8olUvThMNZpNU71njndV1SrANXmvtNRRTrPlb4nN9FisX3/0byt5JiXSOwuWtZYuIBh/0pNz+kswFSr+tS6Or7Q8AFxV5baVN9ZVbm22uzfcgMcGXED1npd60uRLF/wzuOKNbx9/7f8JagqhECCAGEwH1DAFmxt7sjiGIRxSIEEAIIAYTANQggikUUe80jcjuAUCmEAEIAIYAQQBR7u2cAWbGImBECCAGEAELgGgQQxSKKveYRuR1AqBRCACGAEEAIIIq93TPw4axYeIeQgBBACCAEEALfUARuxzTf2VKIYj/+hj7oqNkIAYQAQuDDI/CdJcvbdRxRLKJYhABCACGAEHAXgdsxzXe21Hun2Fsj62xZmfxSp/ug2dc1OsaDC16bTdj4JJ+wClpxlW3jUt9whkRi3aZmSNAbFBMPFYYlsjr7rEv9geXFCXrsT8MSnW4mA9V+AOHMqGvrbnlGCenlEddEbOlsHuT3puTmDAz3vM3P291UmE1YYUUpYW8T0MjHbwK31hePDjTgyC0pqmmyrPREYcbJ5sVHB5Y9osEWN+eJRv1KWCIL7NYZlshavFh+b3NtEW6QkpCVOXa5wm1je2NKbo5+exkctLjE7v4OeJpVxAEVfQCsUBUIAYQAQuBuEbinFHtm1L2m0aubavC9BdsczklF+ERn8olBe3SgaWhrfJufB1jBqFePT/LxzFdcVX4Lij01aI36FaN+xbCnosUlNrQ1gFPCf8L+1c7aeYfphj0VIDOoU6uWhiexwhKSlpemQKJ0VgQ230jIzHwRGPYiMOyRH/UpmQbk7oHOsEQW/nMhJTcHFHz8JlC/vTw5bdm0xGzC8ktLXFCs2YRtri2mF+SfGrSQYmXzYqiNQLGZhbZt78ISWUMC20ansCLYKSQgBBACCIFvCgL3lGJnZoQeJLJm5cq2heV1VaSwSIfrm9vDXVxVjqcKDxI5gBF9LcV+ERD8jBLyjBLyJCDooa9l0VRwPPSlQisW1jUyyntGoR3uOti+GOa53P6i1jec8SUlBL/9hdmE+YQzqhqqk7KznwQEkaNi8Fty6neWs4o4L4PDn1FC2CWFsBawFloPr+N8nfQvAoKZaWlrOusuuUuKyReBYYe7SqGIBxpQXFWewSkAiNU01W5vyJ+SaWqVBDavprnOg0R+Hhja1t1yZtSdL476yI86OsYz6leqGqo55Vy4BQ2gWKGIF/3WsgIfZD6HVizUbzZhgGKZaWmvaPQnAUG+4YzxCT6iWDxESEYIIAS+rQjcU4rNLubQ4hLxoJ8ZdaSwyPI6d/f1BGV9wxnyxUmzCevjdTHT0q6lWHcGioHm40OtHz2KwOLwFL/hYl1rwxcBwU3tTSOjvKjUVO+QCLiRtU844/9v77y6GknSPv9F9m7es7d7t1fv3u2endmZOTtn35nZHaqrurq6uyjTeCFAgFIOIbyEF8JD4T0IbwRCCCdAOIEwAhkK71EZdLEtQhUkKSEJVUEJeOrkqROKDPPEL5P8Z0Q8kRHE4o6M9Zv0c/llJS9oDLQLpsVsEqRn0Lh81aRiTCUPYvPwPppIYnkikW5lal03HSGIZyWlIJOQxB7sLody+a3dUovZVFRZVl5nJdbe08pJEX46MWCJ/XCkf1dbwUxM4qeltXVL0/Ik8RkZ7T2tT/xpNRe7sKXkiGXyy96k+xJ7emD7IDv6krs7vVjMzWEABorJfwgQBgJA4B4R8EaJ/XCk/zk0svliew2Mcm52xMePpltV4xiXga2NhZ9DI9FekgXlpbmlxS4l9mkg/cfgsB+Dw54G0p/401D4x+CwJ/40Si8W9ZKFEjGenkSBnc1FHz8aWWKD2LyK+ipk7fG+7ulFNxH99Gdy8t7Zdiz5cKz/IcDag7SYTTubWh8/mlptmxhWTSqe+NPQXCmSWMVwHypBOSLz8aMhzUYSizZYfR1B6FbVRZVlIknO/PxoKJd/uGvdRRxLbEqOWCgRn+yvFla8Q1Oka6vq36JY1U21sWnpv++RHsTikvu77ktsEJuHlBJ1pqMTkvoGumhcvl80+wWNQePyc4oLKb1YkSQHb5MSGZfQJWvDP7OLCkBiXd7qkAAIAAHvJOCNEqsckT3xD93Z1JKR5ZYWhfIE5BiX4b6BroRM61ZZFrOJnSzs7m93LrHkAinuTuRTFrOpurH2x+CwjIL81FwJ5dTh7gpFYp8G0MndQb9odnN7E8pF2a75ZVgUEnLN/JiPH213y0Zga2Ph9x0xl7TW7jiS2AWNbV+qxYVxHz/apsm6tzmWWIvZZNLPrSxNhnBingXSnwXSdSu2HTSxxCLXpJXlSdw/3t9ZLq+r/HRqeBtJaBcnXoZFkXe6dl9iUdM4QiGS2Kj4hCW7DUrJElvdVJNZmI8xwlwsRgEBIAAE7jsBb5TYpOxsnkhEJvvpxPCSHlUvbSBHugwni8Wl1eUWs2lvW/ssKGx3S3udxJ6fGSmd0d7+zrAYASUS7UHd29/5xD+0f7BL2tn8xD8U93RR4FlQGEViffxo/YOXI65kWSWHLWbTy7CotosB3tkZa5f9WVAYPi62xbbKKpLYxYUrEvv+qsR+PDFUNlQHsbgcobC4qiwpO1uQlo7cr7DEtly4GT8PDkf7dP4SGom1NruoIJwfl19WQiaMJFYm70bJXM7FYokN5QnWdeqEzMxQngAdJv0cWWILykvFJYXYWSwyLrFH1oF/iktsrstkYyAMBIAAELgXBLxOYo/3rR43vf2dZHxj4wNP/G19NXK88/Do+MCv9MiS6vK6ljpBegZatOPQoxgNtzqcCCRHorzrumnUK5V2Nn99L7aupQ634iX9Si92QTOuX5vBB/I8cimxGs0YjctPEYuP9lbRXOynU0NqroQnEn041mOJtZhN67rpNwwCSW+yWIxHwsdV1qVNFOdkJLHN7U3ZxQXuuDthif2VHrm/s0zj8lGfOD4zY103TZbY1FwJGbJ9GAaK8R0CASAABO4XAa+T2O7+9mdBYXiFJaIpys3BTj034rthnIsQxPv40frkXU4kllzmzuZiZFxiEJv3OoIIYHK6ZG3ks+SwmxIbwonBc7En+6tPA+l4eag/k5NRYBsjPd7XPfGnoVNoLhaPrx7trarVSjS/61Ji5YqeLlkb8iLOLS0qr7NOA386McRnZCwuqMgSm5YnYQgS3ps0E1OKt5EEdlpu7mj28aOpJhXkxr6OIA73VhKzsjp6rUAq66uknc3XrYu1mE1IYtd108+Dwy1mkxOJ5aelkXv5MFBMxg5hIAAE7jUBr5NYjlCYIratxURkTw90z4PDOy+e7DdlfX5mFOXmvKAxgtm8rY2F6waKcbELmvE3DKK6saZ/0Prpia2NBXqMIKsoH69dwSktZtPFQDHtaQCdfPwQQKcMFNdLG17QGM3tTcoRGU8k+i2KhVamokU7oVx+vbRhXDUYl55O8SgO5QkUw30jY/3sZGEwm4dU06XEIgtnZ0ae+FtX40xMDpJtJkvswe5ySXX5L6GRvmHR2H9Kt6p+HhKeXVQQwOScHa6T8+5sLr6gMXpkHXhRkMVsGh6V7W1rKZ+esJhNRFJydELSq/BoZmIyktgQTgyNy/8pJILci/18ap0CMKzP4opAYjEKCAABIHDfCXiXxO5sLj7xD0VetZisTN79NJCOHGJxpDuBD8f6nJKiQIK7s6lNEYtFkhwnX3cy6ueyiwte0BhojBq7O53sryZmZf0WxZJ2NlMkx81e7KdTQ3VjrT+T84LGsF8XW9tcJ5SIfwqJcLwuNjz6l9DIxKysDeMcarJziX0ZFmWbPz7Sm4/WKXPJH471SOEwvf7B7lcRzMi4xBBOzNbGgm5VHUhw66UN52dGVlJKYlYW/oDG+ZkxLj09t7RIoxl7SY+ifCuKIrHnZ8afL5Q7WSx+V1NB7sWiqvFA8dzc6K/0SPJaZ5BYfHUgAASAwH0n4F0S29Te9Esog7zixWI2xaalx2daZ1JvdCxpVcFsXjCbZ9RbxenTieFgd3l8YjAyLgEvCMl7V4y+7mQdnQ6kZxcXbL9fRLVgiUU/1WplOD8uhBODPJ5QJEViPxzrzw7X13VqHz8aWhLq0mB/Jqeh9WY+XE7KXF6asJ/ItI9BS3G6Ze30GEEAwdXMj1nMpqFh2YCi+3lweEF5KRK8TZMmkOAiv7P9nWVBekYol48Gk1eWJ1/So9A3mPa2tVsbC6vLUz5+NPwK0ifvekFjaBcnQjgxyBEaOyd/PjWcnxmta5RV1u41TySqbrJ+iBEfSGI/nVg/oWU+Wo/PzCBPV+NkEAACQAAIeD8B75LYcH4c8qbB4Pa3l34IoMuHenCMm4H3Jk1RZRl+6KNcWxsLY18+jWsxm5DWXnxTd31dd+VLUiNj/fy0NHJd52dGtDYGR1Ik9sLTmPZTSARloBuntw9QPIrtE3zzmFBeLBqVHVT2Kkdkn04NuIpBZS95cZHFbNrd0qK54ZKqsgun38tx4wXNuEZj1ebqxlr0GSz0YUVU2vb7xdnZkZ3NReyljGuprK/6IYAexObtbC7ubmnpMQI8bI7SsJOF8qEew/rsE3/rIHwgwV1esq5WggMIAAEgcO8IeJfE3i98n08NbvZWr2vX3UvsdZY4jycP5DpPedOzuHd704yQHggAASDg/QRAYqF7BASAABAAAkDgVgiAxN4KVu9/twILgQAQAAJA4LYJgMSCxAIBIAAEgAAQuBUCILG3gvW234ygfCAABIAAEPB+AiCxILFAAAgAASAABG6FAEjsrWD1/ncrsBAIAAEgAARum8CDktiPx/rpCfltI4PyEYGF2eHjPesetC6PD0eXC2pdJoYEQAAIAIEHQ8DrJPZEK1c++y8r+ZE3Rby6OJ6clMBisW6aEdJ7RkCSkxkTwxtVXu7TZ1+OcrAzIT6OIAjz4Zr9WYgBAkAACDxsAl4nsUfzvYP/9z9r04Psue8qa8fe/Df5P/5N/vc/zMX9TE5g1Km5XM67kvz9L9uY47Pq6ZGohJRXDI4vg5NVfGUPVJzmRoFvXuCNaveexGcHus62eoIgxod7HVplWJ0iCKK7o2F1cfz2Pl7hsGqIBAJAAAh4AwGvk1iL2XR+7HhcceTn/zrN/n9bfaVb/WWH09bN6fAhzk6X5GQ6/FRQKD9RmJs3Oj44plIsL03hLE4CBzv6hbnl0/3LjwuSE3tQIDn7Nwk7t/CbVOFmIS2NVfwY3umBzj79xGgfh8O2j4cYIAAEgMAjIeCNEusQ/eejNfnf/7AtL7c/+14/QxDE0vyo/amPxwZfBoey9al9MkqM+dDA4ity8scp8RazybMC7cv5yhgnFn5lyTfNfry3wmazHHZkZ6cGCYL4eKy/aZmQHggAASDwMAh4kcQa6lPkf/8DOlYLmZjv+fH6x93FD5sz8r//YbO74OPu4sfdxc8Hl44248O9XC6H8rngjyeG4wPd/s6yL4OjHO0/PtAdH+jw1my48OsCuuUVf7psQD6PE3hc4OdTQ2N7MyM+JYAtSJbkkvdGjYhLrm9tzCgs8iP4RHLqzOwIrs5lwN6RZJPmAAAgAElEQVRCi9l0sLuSW1ZG48XTeAkFleV4Z/utjQVfBkc+1MdLy/Qj+IninPemBVzF0f5qQWU5jZcQyBYUVlXgLinKJVP0cITp/ix+Uo5kc+MyF84uyclsrLPuWEc5dFoVQRB7m7bNiyhn4ScQAAJA4MET8CKJPdWNbvWXbfWXjb36d7LEGpvSsPTiAHkutr9XmpyUQLlUPQNdvhfzr+T/bzQX29E5GxTeb9LbhkA9LrCls9WfxW/rbhtVDSblSMJiE/HeMhFxyVEJKarJofdGzbva6gB27KF7PrqosRQLLWZTSm5eZIJwUCmTD/Ux4lMyCotQSiSWSTmSlWW1fm0mLkscm5GFiYnyCojkVPX0yKRaGZUozCwqpuRa180Y1md5qRnxWWKcCwcqy4vKSgvwTxxAowvv9ZfbreNTEAACQAAIPAYCXiSxGLcq6H+SJdZsUu+rpLsjDfK//2GtPHZfJd1XSU+WrLuNoqOvu0UkTMI/UWB3a0mjUc3MjPoyOM0dUo1GpdGoDF8e90d7+sNdV8eOPlE0HJuo/HhivNjZzVmBlNrJP6MShfWtTSjm5GDtTTR3fEKBfkbEJb+rrULhj8eG11GXpzyz0JfBmZ21DZirp0d8GZyj/VWL2YQkdnTcBm1ubgyf2t1aushl3ZnOYjapp0deMTgHu8v2ucYmBn0ZHPx+gNJbzKaaqtLS4jz88/OpwXy4drK/2tfdkpQYDwPFmAwEgAAQeGwE7oHEokvy+Uh3MRfrYEDSocSiXB+O9RdzsUOU6xoUMfA2RObm0d9/OVx8XYGU8sk/X0fxFMP9OCZckNTe24F+RsQlS7ta8algblzPgG0NjAcWahcnfBkcvKv8pknjy+DoVtRYLLG3l2F9xpfBQS8cKNf+9hIyY2dT68vgrK5Y/cKQMC9pJ9Gp5aUpcvnYbIrEqkb6iIt/GemiTcMcTgYBIAAEgMBjI/BAJFaYQu3Fogt5nSJq55cX5lwfgqRhdqzi7ODStfi6Ap3cN74MztDIpcSSZZUc/n2L+AuJtXlKe2ChRqPyZXB2NrXIGCSQSFbJYYvZZJPYdesu9CjXWyYPH74MjsNcSGK37KZjqytL3pXkYwJHu8s6rWpZM1ZbXZqZkQrLdTAZCAABIPDYCDwEiR2Sdwhi+Q6vnAeKiMsZlGsCwvrXV60DrfjwoEDnvdiWTikuPJgT1yt39iUHnBIFKBa67MVqv/RH9Wuz1l7sunWWFOVa0k4a9XP4+HDhBkwR5usktqQor7rSwYJjNBcLHVnKVYOfQAAIPB4CD0FiF+eGr/Nc9UAR0bU3rq0Ghvf39V0OEaN4DwpkJonwXOzpge5NNBcvIoqIS84rty1DOjlYe3WT9UX2Fu5tW92nL+diZ4Z9GRzkVIzEUj7Uh1oxOaXEp9Bc7MqybcXw8b5udnbs47G14+6OxJ6fGePjBD2dtslm8l/O+vIkQRA7GxpyJISBABAAAo+HgBdJ7IG6Y1tesS2vGHv173OCFyj8YdM6mGkxm5zMxX44WufzY7raG+wvmweKaDGbzIcGrmAoJ8/BulgPCpR2tfqzYtt7O8ZUimRJbrgg6ezQ9m2NiLhkIjlV2tU6pR5Ozc9336P4OguFuflRiVaP4kGlLDJBmFl0xaM4PjtnaFg2Oj7ITBIJMrMxLlFeASslfXR8UDU5lJCdE50oRKO77kjsnFpBEIRRZ53xpRzz00Pw6UQKE/gJBIDAoyLgRRI7TfwTr8nBgZ2hanQ9nEisxWyS9bSw2azFuWHKxfNAEa2rS9HXnUhTsLhYhwWenxk/nxrsD5vl1nWxLRFxyQHsWPt1sc0dUnFJiT/rZutir7PwcG8lrxyti423Xxc7PCbnp6N1sRJH62LjA9mCjMKiTZOt3+lSYreM8wnxcQ5X7FjMpolRGXzdCd85EAACQOAREvAiif0a+udnxpqqUhaLVVlu67d9TWk3zTs00k9efYvCrOQ0l+VExCW3dre5TPb1CShi+fUFWsymvu6WmBhedlb6ycW6IPsyl+ZHCYKYmZSfOfq8on16iAECQAAIPDACD0Ri0VVRqwZyJZdfVLizS3W8r1vTTVMOk4E6j2tvD8Wj2D7Bt4q5DYmtq3knl7U5X/ZaV/MOLeCBnXa+1aWEcoAAELhHBB6UxN4j7sjUey2xbtI+2F5aW5qApTtu4oJkQAAIPCQCILFUJ52HdHWhLUAACAABIPAdCYDEgsQCASAABIAAELgVAiCxt4L1bl6a9v7Tv8EBBIAAELhLAnfzcHswtYDEgsSCTgMBIAAE3CXwYMTvbhoCEgsS6+6f1l2+KUNdQAAIeCeBu1GmB1MLSOxDkNgHczveo4ZsGub0K7Y9iO6R2fam7r5f0GlV9vEQAwTIBLDekyMh7JIASCxI7D0m4PL+vo0EH4/1jXUVBEH0djWTy/90YmAmifjpmeRI7w9r50YIgijIFx/u2DY0/OY255QU0WMElGIDCW5xVRkl0uHP8zPjus72IVWHCSDyDgiAxHoGGST2HgvMdTd9S6c0hBuPPjLVM2DbHc+z+wPl+uYFfo0x3z1vZXkRnx8zNd7/+fRyl0OL2fTx2EDnJzCTRN/cwqb25m9S7HujJjYj60009/dNIIK5cdjOtaUJkTApPU14G18I+XhieEmPami98gnxxYVxHz/a8tIEtsFJYHV56ufQyMkphcVsmpxS+PjR7I9w/mVzBGnp9gnIMbOzI06qQ6f8mZx66RWbXWaxT+DjRxtU9trH38eY654297Etd2kzSOxDk1iTYd6Xwamorx1TKcZUCvK3iJ3cWBv6Ne38ssMEnhXosKiviXRi4dcUe9O8C7NKgiAWZqlfw0blfD413MZHNr6VxOa8K41MECqG+8dUikm1ktz23fcLMTG83i4HOyaRk3kQHh0feOJPo2wzXFBeGsKJcb805YjsBY2hW5manFII0tJRxkFl78Gu9aZdXpqgSGxLZ/Ph7srh7srO5qKPH21tVY1+Hu6uBLF5ILHuk8cpQWIxihsFQGIfmsTOzI7gjercvxUMOl1AWH9v75x9Fs8KtC/nK2OcWPiVJd8oe0VZ4d1/pLOxveWb9GJjM7Iq6muva29rc01SYvx1Zz2OF0rErOQUcvbPp4ZXEczqpmstISfG4cqG6pmZEbLExqSmruumHUpsj6wDZfxwrPfxo+1sLuJyaFw+SCym4X4AJNZ9VuSUj1RiP58aWjpbI+NT/Ah+siSX/D3hsrrquCyxtKs1mBNH4yXUSRtxv8TJqc/W7XSaGfEpAWwBZTsdJ7nIV4ISNh8azg6uHJ9OqG8DlJvefLR+fKAbmxj0ZXC23y8eH+iOD3QfT64MZlJqIf/s7Z0LDOs36HQ40uMCD3ZXcsvQhj8J9hv+yIf6eGlow58cNzvZyCR7C61bym9ogluq/1qS+0NVccm47POZESVumx3+U1GObHHsSWXR30py4/qkpxf7zKOzK+81NGnNX0ty/1VRWKbqP/+yEx/K1a0Z/VdF4d9K8hJkrWekXBazKSkxvq+7BSNCgTXdNN4HIjbjyleyB5Wyt0ze8Jg8XJAUxBEUVlWYj2xbGVrMpjXddKI4J4AdGxmf0tIpJY88q6dHmEkif1ZsXnlZQ1sTWWJVk0NsYfpvRAw7JW1K7bg/Tbbw/MyIboaYtMzSmioUPrXbmwFNyh5sU2dkezqbOBz2QF8ruUw3w6cHuufB4Z197eT0ExeDvSa9g/c5cjKHYSSx46rBACbnx+Cwt5EETySy78W6KbHnZ8am9qYgNu+nkIjIuMTp6cuevT+TU91Yk5Sd/VNIRCgvVk3q9OeXlRBJyfXS+pf0qFcRzPK6KvyIOD3QZRTk/xLKCGLz1GrlE/9QPFD8+dRQ21IfQHCfh4TzRCLD+ixq4MTkoI8fjTzZnJYnYSVdeSlxiOLTqaG6sSaAyfk5NJInEqG3DZTSn8mprK9KzMp6HhJO4/LRGDs6dbi3klmY/yqC+UtoZHZxAd7D471J4+NH65K1hfHjfgqJ4IlE741XvrJOedo4NAki7Qk8Uolt624LYMfKh/o0GpUor4C8h2tZXTWdn9DY3vLetDA00v8qkjuqGkTgnJxq6Wz1Z/HbuttGVYNJOZKw2MSzwzWXueyvB47xC+1/GyIjH52dtr9JnIZy02cVl+AHPQ7caC42UzzKjVN+OLaplMcFpuTmRSZYt62VD/Ux4lMyCq9sW5uUI1lZVuvXZuKyxBRBwk27LkCx8PBo/T/e5Ye21vQtjpep+v9cJKmelKO8bbPDfywUJ8nadJuL46vqf5QVSIa70anjo7V/lhVGdzRMrk03zQz9pVhSM2W7xChXykCbaWdpbFX9t5Lc/JEesjFcLmd8mDq7dnKwhobl0/ILKC0aVMreRHNLa6q2NhZmZ8cC2YKGNttg7PGBjsaLT5HkjqoGW7vbfiNiOr/0vfa3l/wIfmZR8dT0cEunNDJBiCV2eWnqFYNT39q4uDhR01z/OoqnW3WwWS/ZZsP6DL4fcIA8F4sSv9fPEgRhWrP2C8lHaXEeQRAVZZ7sYdUn73oaSD/cWyEXmFGQFx2fSI5xEv50Yjje1x3v69A7gZu9WPLMq30Y92Klnc3PAunVjbXDozJRbs6PwWH6NZtflT+TE8TitnQ0T00N8USiX0IZh7u2VuSXlbxhENWNtSbDfP9g9xP/0KFhGWpCcVXZL6GRnb1to+MDSdnZTwPoWGIbWxtf0Bi9/Z2zMyOC9Ay/aDZ6RHw8MbygMZrabXfF51PDr/RI/NMJmdqW+p9CIhpbG4eGZVyh8G0kC782IeNHxvpN+rn8spIXNAYaUbeYTYL0DBqXr5pUjKnkQWxeUrZt32gksTyRSLcyta6bjhDEU2Se8rRxYhicIhN4pBIbnSisb21EII4PdG+jeWMqqzOFxWwqq6uOiEvGjBLFktKaKpenoqwF2v5ITg7W3kRzxydcF4hrsQ8sLSxrNVeO3c3L3g9KT7npDfpZjUbV1t3my+BMqYc1GpVGo9rdsnZKPp8aD3f1Lg/jmo4eJa+osq1FcVKgvcE4ZndryZfBmZ0dRTHqaevA9dHFhndow5/RcZuezc2N4VOeWdg5P/KnopzjL/1C8VDXL7XvUL1ts8P/PT9792AV/cwf6cGnujSjfy6SkHP9XOM4V6q843VDBW6axWxisViTY7bnKTkehSsaau0l1pfBwQ+4srqamDSby7FytP8tk3d6YHsVq2muZ6fYNkBUjg68ieZ+ONKjYnNKS7HEFldXxWWJcdX89KyyOtueyjiSEjg7XEc3A5GcmlVcgsLaRaqr0bZJQxCEYXWKkn1/Szs+3Gvfu6Ukc/iTn5aWkHnFxfrscP0FjdHaRR0JcJjdYjYNKLqRRobyrD7JSGLzy0poXP7zkPAAgkvj8ntkHZS52NZuKRLmvW3tRR9xGv38/f9g0lxsOD+uoLwUVX1+ZnwbyaqX1qOf/kxOZmE+Cm+/t07ojk/Y7tv8shK/aDY2mJMizC0tRj+D2bzKBtvl0K/NkN2drKfqbU+S4/3VZ4F05YjtRhJJcjhCISphbnbEx4/mThc/iM2ruCxQ9zSQPjxqK9Cfycl7ZzPpw7H+hwDbqZ1NKw3cI1dNKp740/Yvxi2QxCqG+5AZyhGZjx8Na7bFbKI8bXDzIeCcwCOV2NdR1rE7jCYyQdjeYxvLso7rZtre7CxmU2VjbWWjbdLIyanXUTzFcD8uMFyQ1N5rmw1ykgun9yzg8KafnrmYi706DKhbWiF3iF2GjWuXw8UOC3RisHZxAo1UozSbJo0vg6Nbsfa0KHvqod6VQW/tnXtmYcmY7Icq26PEYjZJZ5V/LclF9aIhX2xnnXrwP97ZnpglY7KfamwPVovZ1DE//JdiCc71x8JLAXs3LntSeVm+ZxL7NpqHzZB2tTLibWOAaKoCn5IP9fmzYtHP9t4OeuxlP6+R5FGcIsktqanEuQqrKtLyC/BP5wHrXGzDtTOg10ms8zKdnN3b1v4QQFcobU9tlHJQ2ftDAH1vW+sko/2p2dkRJLETk4Nx6TZ3J5yMMlDMSRH2fXGkdz4X+ys9sqPX8YbN/kxOXUsdruJZIL1PbnPOzy8rYSZevoUXV5Xh1UcvaIxume1Jcn5mJEssuUdrMZsCCS7uqsoVPU8D6Mf71j+6dzUVoTzbbYBrdxh4GkCXyW0DM79LoF80u/lLV5jiDv0yLKq9xzrOr5kf8/Gj7W7Z4G9tLPj40Za01pctJLELmnFUF3L53jRpcNUOnzb4LASuI/BIJfZ3DXgTzX3L5KHjFYMj7bJNNaGpU4e8nJzyZXCGRi4llrxLnZNcDmtBkR7MxaKMDhXx9MCwMLfs8lBPaWmMgfyiKx8icFigE8s1GpUvg7Ozefln7MvgLC9Z+0aOJXbdOjTnmYWFo73PSBJLllVy2GI21akH/0+pTWILR3v/R372n4py0PHHQvGfinJQiyi5LiT2ygApm82eGL2iGWQUDnuxb5lXJBaPkTS1N0clXE65oVlbVFp7T3sYSWLJHsWJYsnrqMtb93UUV5hraxfZEodh5xK7ZZwnCMKoczHs7LBkh5HSzuYXNAZ57tliNsVnZsR+cQl2mMthJJZY5YgsRSyemFKE8gToKK4qo0hsKE/QJ+86O1w7O1w73F3x8aMZ1mfRz7PDtRBODB4o/iWU0Xm9xJIX7TwLCsOyjeZiHdr5U0hEd//lxDNZYn38aE8D6c+CwtDxxJ+Gyz/et/ZBUQ8ylMvHfVOHVeBIHz9a/+ClxJJllRy2mE0vw6LauqUWs2l2xtpFxjY8Cwrz8aMtLlhlFUksClvMJiSx70Fir06aYPjuBx6pxL6O4nXJOo36OXygkUw0UEweiCOjdCKWLnqxpJE9coFOwh7MxaLSbqqIZBsKiidYfMXpwRUPqZsW6LIXq9XaBqL1a7O+DA72+yBbcl2YYqHzXiy5P1o7daUX+6y6WLe5iI+1L+/1LiU2lh+jHOy8zrwbSazHvdjcsnf4vjXq5/DbzHVW4XjnEqtfmSIIYuuqkwvO60EgMi4xo+CK/B/urjwNvNL3crNYLLGtXS35ZSUKZR8aj11emkjJEVMk9jWDsJ9/JcdgiXXei8USaDGb3JRY573Y39859Gsz+CBPUcekpmYW5r03zv9up/0YvkNKznux5C74S/qVXuyCZhzboF+bQfMRILEOIX995COV2OhEYduXkeHzM+P8/DiakPBYYplJIjwXe3qgexPNVU1ezsVep9lOrp8Hc7GotJsqIrZhUK4JCOtfW7FNXuL4mxa4t718ZS52ZhgvIkK9WPmQrRc4OaXEp3B1TgL2FnZrRq/MxSq7f621fTAIzcUavgxIZio68akuzejfSvI+ntq8ugzb2umLwWqL2eRSYnPEGfVfqrA39UYSOzw2cHUutoEttA2BKkf7nczFpuZf6pZuRW102zXXucQOK7o4HPYnt13Q7ZtPjjHp53z8aGRfVovZ1Nnb9jw4nDzDR87iJIwk9nB3Jbe0uKG1wbnEPgukb7+3rdJxPlAczo/LLytB9drPxXogsUGkCVf7udjGNpv/x/mZcXp6GA/YWsym9p7W1xFER2/b20gC+yc7AWIxm0I4Mbi/e7K/+jSQPjJmG0jzZ3Lwy83xvu6JPw2dQnOxS1++l3m0t6pWKz9c+MyDxDqn7fHZRyqxbd1tQRxBr7x7emakuLrqLZOHZx2cdFWdnJJ2tfqzYtt7O8ZUimRJLsVF2QOJdeeKOpwduakiooqMa6tB4Y7XxXpQ4O9Dl1GJVo/iQaUsMkGYWXTFozg+O2doWDY6PshMEglI097Om+zQwqOj9X+UFdDbavsWx8tVA3+2+gZfehT/tSSX2dkoX1LVqxV/LcnNHbb5BiOPYmZHw9DyZPvcyL8qihJltmkClxLb190SE8M7vuoiazLMqyaHVJNDaQUFzCQRCqM5ZvLwr3W2uKsVDxSfHKyFxiQIc/PGVIq2nnY/gt8ls/WP97aXfyNikEextMu6ugy7O1k9iiO5ddLGmdmRtp72t0yecvRyhsJiNh1sLwli+YqBy+FKDNaJxJ6fGbMy096VXIo3zvVePyOI5U98caXB8c4D1Y21ryKY5GVI1pnspBRRrm1M3nl2ylm1Wvk6gghgcl6FR09NDSmUfS/Domhcvj+TQ+nFri5PvWYQOLtziW3puOJR/CwoDC+eoYy1utmLLaq88Cjuax8dH0jJEZMHihtbG1GneWJKkVNS9CwobMN4uWwJeVSFxQiw5xRuwnWBemnDCxqjub1JOSLjiUS/RbHwKgZ/JieUy6+XNoyrrFPXFI/iUJ5AMdw3MtbPThYGs3lI0UFir+P8lfGPVGI/nxqaO6SMi3WxsRlZc3NjmKMTHXVy6mJdbEtEXHIAO9bhulhc/jcMfEOJdfLtJIcSe35m/HxqoBz47ftwbyWvHK2LjbdfFzs8Jueno3WxEvfXxV5n4dL162L/UiwZWp58Uln8v63rYlso62JDLtbF/rO8IE3ecXZi8911KbGnB7r4OEFxYS75W4PNHVK8GAYHqpuszjJOJNZiNunXZq5bFzulHr5YF8vPKS2tlTZiibWYTapJBTsl7TciJjpR2DNwORuHbi20vFU75+AbgddJ7PmZsaO1jsVi2bsTW8ymqfF+D+ZoQzgx2FkXGba1sfDEnzY2PuDBn0BTe5OPHy27qAB1gnEvFhVFHiiuaarDC1EsZpNzif18amhobQhiWdeqRsYlTE0NYds8k9jTA116ft7PoZEBBBct/8WLdqzrYpvrApic5yHh0fFX1uCiShmCBEq///zM+OnUQDnwW8vFuthafybnBY1hvy62trlOKBH/FBLheF1sePQvoZGJWVlY5kFi8aX/toFHKrHfFuL3Ks2hxN6NMUXVlVhLcMDl6hGKu9Otmto2O/y/vjgxfduK1pcnBbH8lOTExTnXn334tlW7U5pioJ0gCPxJAZdZtozz4ux0Npttv94X5e3uaOByOfjJ7rJAi9m0pJ248KO54jdXL214SY9y/1souKLPp4YgFjctL3dA0R2fkWExm87PjOh9Dr3qzc2NMgQJFrPpeH/VNywaT7WSJfbDkf7scP1wd+U1g9BoLl+pcS1eGOgftC1YIk8ku+Nv7M/kUD4K/fWt+45Pm683/juWABJ7ZZX9d7wSHlT9HW/6nU3tmm6acqA1uE4acscSi/2EnZjk2an9LW1LY5UTvyfPiv0muRpqy1NFl0tKXJa5sjBWWV7kxJG4rLRAknNlbavLMosqy4JYXEqyUJ5AUnJlBRQlgZOfCmXfpxNDZX0VuaN54Yiuex4S/lNIRHVTjcVsmpgcTBZfrrlCEvv7R6B2Nhc7+9qf+FudaZmJSe6/fzgx6Q5OHe2tri5PUQ533AMpXfBvYup3fNp8E/u/VyEgsSCxd0fgwUjs9/pzdadeSU5mTdXlql93sjhPkypKbm22Cti9OG7U274XLfLASJBYD6DdUhaQ2Pvx4HB4+eG90iEWiAQCQOCbE4CnjWdIQWJBYu8xAc9uesgFBIDATQmAxN6UGEoPEnuPBQZues9uesgFBIDATQnA0+amxFB6kFiQ2HtMwLObHnIBASBwUwIgsTclhtKDxN5jgYGb3rObHnIBASBwUwLwtLkpMZTeiyT204n1UwaeNeNx5oKb/nFed2g1ELh7AvC08Yy5F0lsS2MVi8UqyBfvbFzuoORZqx5JLrjpH8mFhmYCge9OAJ42nl0CL5LYnQ3NnFqRKkouKrRt3ulZkx5PLrjpH8+1hpYCge9LAJ42nvH3IolFDejtarrRt2k8a/bDyIVveggAASAABO6GwMN4eN5ZK7xOYhvqygvyr3wC7c5Y3LuK7uYvCmoBAkAACGAC9+45+X0N9jqJzc/Lbqyr+L5Q7kvt+KaHABAAAkDgbgjcl8ejl9jpdRKbKkru627xEjpgBhAAAkAACAABjwl4ncSWlRYUFUr2t7Tmw7UPR+seNwwyAgEgAASAABD4vgS8TmKPdpfTUlOIi39pqSnflw7UDgSAABAAAkDAYwJeJ7H1tWUZ6aL56SGdVuVkD0uPGwwZgQAQAAJAAAjcDQGvk1iRMAnmYu/m2kMtQAAIAAEgcKsEvE5iJTmZ0qbqW20zFA4EgAAQAAJA4A4IeJ3E1la/KynKu4OWQxVAAAgAASAABG6VgNdJbE9nY3qa8FbbDIUDASAABIAAELgDAl4ksZ9ODHubi/l5YnF2+h20HKoAAkAACAABIHCrBLxIYlsaqwiCiBPEri6O32qboXAgAASAABAAAndAwIskdmdDY9SpP53AlrH3eJf4O7hloQogAASAwH0h4EUSe1+QgZ1AAAgAASAABNwhABILXUYgAASAABAAArdCACT2VrC683YDaYAAEAACQOBhEwCJBYkFAkAACAABIHArBEBibwXrw34vg9YBASAABICAOwRAYkFigQAQAAJAAAjcCgEXEvvpxPD5FFbR3Ap6d96AIA0QAAJAAAjcXwIuJLalsYrFYhXki3c2NPe3kWA5EAACQAAIAIG7J+BCYnc2NHNqRaoouahQcvfGQY1AAAgAASAABO4vARcSixrW29WUKkq+v40Ey4EAEAACQAAI3D0BtyS2oa68IF9898ZBjUAACAABIAAE7i8BtyQ2Py+7sa7i/jYSLAcCQAAIAAEgcPcE3JLYVFFyX3fL3RsHNQIBIAAEgAAQuL8E3JLYstKCokLJ/pbWfLj24Wj9/rYWLAcCQAAIAAEgcGcE3JLYo93ltNQU4uJfWmrKnRkHFQEBIAAEgAAQuL8E3JLY+tqyjHTR/PSQTqsy6tT3t7VgORAAAkAACACBOyPglsSKhEkwF3tnlwQqAgJAAAgAgYdBwC2JleRkSpuqH0aDoRVAAAgAASAABO6GgFsSW1v9rqQo724MglqAABAAAkAACDwMAm5JbE9nY3qa8GE0GFoBBIAAEGfrJjMAAADaSURBVAACQOBuCLiQ2E8nhr3Nxfw8sTg7/W4MglqAABAAAkAACDwMAi4ktqWxiiCIOEHs6uL4w2gwtAIIAAEgAASAwN0QcCGxOxsao0796QS2jIUtY4EAEAACQAAI3IyAC4m9G52HWoAAEAACQAAIPDwCILE3eyV5eHcAtAgIAAEgAARuiQBILEgsEAACQAAIAIFbIQASeytYb+mFCIoFAkAACACBe0QAJBYkFggAASAABIDArRAAib0VrPfoJQtMBQJAAAgAgVsiABILEgsEgAAQAAJA4FYI/H/4edJEk1tKWwAAAABJRU5ErkJggg==;" vertex="1" parent="1">
          <mxGeometry x="355.1" y="1021.5" width="514.9" height="170" as="geometry" />
        </mxCell>
        <mxCell id="Efuom8H8bGFNNsh-Mxzv-160" style="edgeStyle=orthogonalEdgeStyle;rounded=0;orthogonalLoop=1;jettySize=auto;html=1;entryX=0;entryY=0.5;entryDx=0;entryDy=0;" edge="1" parent="1" source="Efuom8H8bGFNNsh-Mxzv-157" target="Efuom8H8bGFNNsh-Mxzv-159">
          <mxGeometry relative="1" as="geometry" />
        </mxCell>
        <mxCell id="Efuom8H8bGFNNsh-Mxzv-164" style="edgeStyle=orthogonalEdgeStyle;rounded=0;orthogonalLoop=1;jettySize=auto;html=1;entryX=0;entryY=0.5;entryDx=0;entryDy=0;" edge="1" parent="1" source="Efuom8H8bGFNNsh-Mxzv-157" target="Efuom8H8bGFNNsh-Mxzv-161">
          <mxGeometry relative="1" as="geometry" />
        </mxCell>
        <mxCell id="Efuom8H8bGFNNsh-Mxzv-157" value="&lt;h2&gt;def_chr_fops.open&lt;/h2&gt;" style="rounded=1;whiteSpace=wrap;html=1;fillColor=#dae8fc;strokeColor=#6c8ebf;fontStyle=1;fontSize=9;flipV=1;flipH=1;direction=east;fontColor=light-dark(#FF0000,#FFFFFF);" vertex="1" parent="1">
          <mxGeometry x="140" y="1200" width="120" height="26" as="geometry" />
        </mxCell>
        <mxCell id="Efuom8H8bGFNNsh-Mxzv-159" value="&lt;h2&gt;字符设备通用操作集合&lt;/h2&gt;" style="rounded=1;whiteSpace=wrap;html=1;fillColor=#fff2cc;strokeColor=#d6b656;fontStyle=1;fontSize=9;fontColor=light-dark(#FF0000,#FFFFFF);" vertex="1" parent="1">
          <mxGeometry x="720" y="1200" width="150" height="26" as="geometry" />
        </mxCell>
        <mxCell id="Efuom8H8bGFNNsh-Mxzv-163" style="edgeStyle=orthogonalEdgeStyle;rounded=0;orthogonalLoop=1;jettySize=auto;html=1;entryX=0;entryY=0.5;entryDx=0;entryDy=0;" edge="1" parent="1" source="Efuom8H8bGFNNsh-Mxzv-161" target="Efuom8H8bGFNNsh-Mxzv-162">
          <mxGeometry relative="1" as="geometry" />
        </mxCell>
        <mxCell id="Efuom8H8bGFNNsh-Mxzv-189" style="edgeStyle=orthogonalEdgeStyle;rounded=0;orthogonalLoop=1;jettySize=auto;html=1;entryX=0;entryY=0.5;entryDx=0;entryDy=0;" edge="1" parent="1" source="Efuom8H8bGFNNsh-Mxzv-161" target="Efuom8H8bGFNNsh-Mxzv-165">
          <mxGeometry relative="1" as="geometry" />
        </mxCell>
        <mxCell id="Efuom8H8bGFNNsh-Mxzv-193" style="edgeStyle=orthogonalEdgeStyle;rounded=0;orthogonalLoop=1;jettySize=auto;html=1;entryX=0;entryY=0.5;entryDx=0;entryDy=0;" edge="1" parent="1" source="Efuom8H8bGFNNsh-Mxzv-161" target="Efuom8H8bGFNNsh-Mxzv-183">
          <mxGeometry relative="1" as="geometry" />
        </mxCell>
        <mxCell id="Efuom8H8bGFNNsh-Mxzv-194" style="edgeStyle=orthogonalEdgeStyle;rounded=0;orthogonalLoop=1;jettySize=auto;html=1;entryX=0;entryY=0.5;entryDx=0;entryDy=0;" edge="1" parent="1" source="Efuom8H8bGFNNsh-Mxzv-161" target="Efuom8H8bGFNNsh-Mxzv-186">
          <mxGeometry relative="1" as="geometry" />
        </mxCell>
        <mxCell id="Efuom8H8bGFNNsh-Mxzv-198" style="edgeStyle=orthogonalEdgeStyle;rounded=0;orthogonalLoop=1;jettySize=auto;html=1;entryX=0;entryY=0.5;entryDx=0;entryDy=0;" edge="1" parent="1" source="Efuom8H8bGFNNsh-Mxzv-161" target="Efuom8H8bGFNNsh-Mxzv-195">
          <mxGeometry relative="1" as="geometry" />
        </mxCell>
        <mxCell id="Efuom8H8bGFNNsh-Mxzv-161" value="&lt;h2&gt;chrdev_open&lt;/h2&gt;" style="rounded=1;whiteSpace=wrap;html=1;fillColor=#dae8fc;strokeColor=#6c8ebf;fontStyle=1;fontSize=9;flipV=1;flipH=1;direction=east;fontColor=light-dark(#FF0000,#FFFFFF);" vertex="1" parent="1">
          <mxGeometry x="220" y="1240" width="120" height="30" as="geometry" />
        </mxCell>
        <mxCell id="Efuom8H8bGFNNsh-Mxzv-162" value="&lt;h2&gt;字符设备核心open函数&lt;/h2&gt;" style="rounded=1;whiteSpace=wrap;html=1;fillColor=#fff2cc;strokeColor=#d6b656;fontStyle=1;fontSize=9;fontColor=light-dark(#FF0000,#FFFFFF);" vertex="1" parent="1">
          <mxGeometry x="720" y="1242" width="150" height="26" as="geometry" />
        </mxCell>
        <mxCell id="Efuom8H8bGFNNsh-Mxzv-169" style="edgeStyle=orthogonalEdgeStyle;rounded=0;orthogonalLoop=1;jettySize=auto;html=1;entryX=0;entryY=0.5;entryDx=0;entryDy=0;" edge="1" parent="1" source="Efuom8H8bGFNNsh-Mxzv-165" target="Efuom8H8bGFNNsh-Mxzv-167">
          <mxGeometry relative="1" as="geometry" />
        </mxCell>
        <mxCell id="Efuom8H8bGFNNsh-Mxzv-190" style="edgeStyle=orthogonalEdgeStyle;rounded=0;orthogonalLoop=1;jettySize=auto;html=1;entryX=0;entryY=0.5;entryDx=0;entryDy=0;" edge="1" parent="1" source="Efuom8H8bGFNNsh-Mxzv-165" target="Efuom8H8bGFNNsh-Mxzv-173">
          <mxGeometry relative="1" as="geometry" />
        </mxCell>
        <mxCell id="Efuom8H8bGFNNsh-Mxzv-191" style="edgeStyle=orthogonalEdgeStyle;rounded=0;orthogonalLoop=1;jettySize=auto;html=1;entryX=0;entryY=0.5;entryDx=0;entryDy=0;" edge="1" parent="1" source="Efuom8H8bGFNNsh-Mxzv-165" target="Efuom8H8bGFNNsh-Mxzv-175">
          <mxGeometry relative="1" as="geometry" />
        </mxCell>
        <mxCell id="Efuom8H8bGFNNsh-Mxzv-192" style="edgeStyle=orthogonalEdgeStyle;rounded=0;orthogonalLoop=1;jettySize=auto;html=1;entryX=0;entryY=0.5;entryDx=0;entryDy=0;" edge="1" parent="1" source="Efuom8H8bGFNNsh-Mxzv-165" target="Efuom8H8bGFNNsh-Mxzv-180">
          <mxGeometry relative="1" as="geometry" />
        </mxCell>
        <mxCell id="Efuom8H8bGFNNsh-Mxzv-165" value="&lt;h2&gt;&lt;font style=&quot;color: light-dark(rgb(0, 0, 0), rgb(255, 255, 255));&quot;&gt;inode -&amp;gt; i_cdev&lt;/font&gt;&lt;/h2&gt;" style="rounded=1;whiteSpace=wrap;html=1;fillColor=#dae8fc;strokeColor=light-dark(#000000,#FFFFFF);fontStyle=1;fontSize=9;flipV=1;flipH=1;direction=east;fontColor=light-dark(#FF0000,#FFFFFF);" vertex="1" parent="1">
          <mxGeometry x="300" y="1280" width="120" height="30" as="geometry" />
        </mxCell>
        <mxCell id="Efuom8H8bGFNNsh-Mxzv-167" value="&lt;h2&gt;&lt;font color=&quot;#000000&quot;&gt;检查是否已有cdev缓存&lt;/font&gt;&lt;/h2&gt;" style="rounded=1;whiteSpace=wrap;html=1;fillColor=#fff2cc;strokeColor=light-dark(#000000,#FFFFFF);fontStyle=1;fontSize=9;fontColor=light-dark(#FF0000,#FFFFFF);" vertex="1" parent="1">
          <mxGeometry x="720" y="1282" width="150" height="26" as="geometry" />
        </mxCell>
        <mxCell id="Efuom8H8bGFNNsh-Mxzv-172" style="edgeStyle=orthogonalEdgeStyle;rounded=0;orthogonalLoop=1;jettySize=auto;html=1;entryX=0;entryY=0.5;entryDx=0;entryDy=0;" edge="1" source="Efuom8H8bGFNNsh-Mxzv-173" target="Efuom8H8bGFNNsh-Mxzv-174" parent="1">
          <mxGeometry relative="1" as="geometry" />
        </mxCell>
        <mxCell id="Efuom8H8bGFNNsh-Mxzv-173" value="&lt;h2&gt;&lt;font style=&quot;color: light-dark(rgb(0, 0, 0), rgb(255, 255, 255));&quot;&gt;kobj_lookup&lt;/font&gt;&lt;/h2&gt;" style="rounded=1;whiteSpace=wrap;html=1;fillColor=#dae8fc;strokeColor=light-dark(#000000,#FFFFFF);fontStyle=1;fontSize=9;flipV=1;flipH=1;direction=east;fontColor=light-dark(#FF0000,#FFFFFF);" vertex="1" parent="1">
          <mxGeometry x="390" y="1320" width="120" height="30" as="geometry" />
        </mxCell>
        <mxCell id="Efuom8H8bGFNNsh-Mxzv-174" value="&lt;h2&gt;&lt;font color=&quot;#000000&quot;&gt;根据设备号在cdev_map找到对应的kobj&lt;/font&gt;&lt;/h2&gt;" style="rounded=1;whiteSpace=wrap;html=1;fillColor=#fff2cc;strokeColor=light-dark(#000000,#FFFFFF);fontStyle=1;fontSize=9;fontColor=light-dark(#FF0000,#FFFFFF);" vertex="1" parent="1">
          <mxGeometry x="600" y="1322" width="270" height="26" as="geometry" />
        </mxCell>
        <mxCell id="Efuom8H8bGFNNsh-Mxzv-175" value="&lt;h2&gt;&lt;font style=&quot;color: light-dark(rgb(0, 0, 0), rgb(255, 255, 255));&quot;&gt;container_of&lt;/font&gt;&lt;/h2&gt;" style="rounded=1;whiteSpace=wrap;html=1;fillColor=#dae8fc;strokeColor=light-dark(#000000,#FFFFFF);fontStyle=1;fontSize=9;flipV=1;flipH=1;direction=east;fontColor=light-dark(#FF0000,#FFFFFF);" vertex="1" parent="1">
          <mxGeometry x="390" y="1360" width="120" height="30" as="geometry" />
        </mxCell>
        <mxCell id="Efuom8H8bGFNNsh-Mxzv-176" style="edgeStyle=orthogonalEdgeStyle;rounded=0;orthogonalLoop=1;jettySize=auto;html=1;entryX=0;entryY=0.5;entryDx=0;entryDy=0;" edge="1" source="Efuom8H8bGFNNsh-Mxzv-175" target="Efuom8H8bGFNNsh-Mxzv-177" parent="1">
          <mxGeometry relative="1" as="geometry" />
        </mxCell>
        <mxCell id="Efuom8H8bGFNNsh-Mxzv-177" value="&lt;h2&gt;&lt;font color=&quot;#000000&quot;&gt;根据kobj找到包含它的cdev&lt;/font&gt;&lt;/h2&gt;" style="rounded=1;whiteSpace=wrap;html=1;fillColor=#fff2cc;strokeColor=light-dark(#000000,#FFFFFF);fontStyle=1;fontSize=9;fontColor=light-dark(#FF0000,#FFFFFF);" vertex="1" parent="1">
          <mxGeometry x="680" y="1362" width="190" height="26" as="geometry" />
        </mxCell>
        <mxCell id="Efuom8H8bGFNNsh-Mxzv-180" value="&lt;h2&gt;&lt;font style=&quot;color: light-dark(rgb(255, 0, 0), rgb(255, 255, 255));&quot;&gt;inode-&amp;gt;i_cdev=p&lt;/font&gt;&lt;/h2&gt;" style="rounded=1;whiteSpace=wrap;html=1;fillColor=#dae8fc;strokeColor=light-dark(#000000,#FFFFFF);fontStyle=1;fontSize=9;flipV=1;flipH=1;direction=east;fontColor=light-dark(#FF0000,#FFFFFF);" vertex="1" parent="1">
          <mxGeometry x="390" y="1400" width="120" height="30" as="geometry" />
        </mxCell>
        <mxCell id="Efuom8H8bGFNNsh-Mxzv-181" style="edgeStyle=orthogonalEdgeStyle;rounded=0;orthogonalLoop=1;jettySize=auto;html=1;entryX=0;entryY=0.5;entryDx=0;entryDy=0;" edge="1" source="Efuom8H8bGFNNsh-Mxzv-180" target="Efuom8H8bGFNNsh-Mxzv-182" parent="1">
          <mxGeometry relative="1" as="geometry" />
        </mxCell>
        <mxCell id="Efuom8H8bGFNNsh-Mxzv-182" value="&lt;h2&gt;&lt;font style=&quot;color: light-dark(rgb(255, 0, 0), rgb(255, 255, 255));&quot;&gt;将cdev缓存在inode中&lt;/font&gt;&lt;/h2&gt;" style="rounded=1;whiteSpace=wrap;html=1;fillColor=#fff2cc;strokeColor=light-dark(#000000,#FFFFFF);fontStyle=1;fontSize=9;fontColor=light-dark(#FF0000,#FFFFFF);" vertex="1" parent="1">
          <mxGeometry x="680" y="1402" width="190" height="26" as="geometry" />
        </mxCell>
        <mxCell id="Efuom8H8bGFNNsh-Mxzv-183" value="&lt;h2&gt;&lt;font style=&quot;color: light-dark(rgb(0, 0, 0), rgb(255, 255, 255));&quot;&gt;fops_get&lt;/font&gt;&lt;/h2&gt;" style="rounded=1;whiteSpace=wrap;html=1;fillColor=#dae8fc;strokeColor=light-dark(#000000,#FFFFFF);fontStyle=1;fontSize=9;flipV=1;flipH=1;direction=east;fontColor=light-dark(#FF0000,#FFFFFF);" vertex="1" parent="1">
          <mxGeometry x="300" y="1440" width="120" height="30" as="geometry" />
        </mxCell>
        <mxCell id="Efuom8H8bGFNNsh-Mxzv-184" style="edgeStyle=orthogonalEdgeStyle;rounded=0;orthogonalLoop=1;jettySize=auto;html=1;entryX=0;entryY=0.5;entryDx=0;entryDy=0;" edge="1" source="Efuom8H8bGFNNsh-Mxzv-183" target="Efuom8H8bGFNNsh-Mxzv-185" parent="1">
          <mxGeometry relative="1" as="geometry" />
        </mxCell>
        <mxCell id="Efuom8H8bGFNNsh-Mxzv-185" value="&lt;h2&gt;&lt;font color=&quot;#000000&quot;&gt;获取设备驱动的fops&lt;/font&gt;&lt;/h2&gt;" style="rounded=1;whiteSpace=wrap;html=1;fillColor=#fff2cc;strokeColor=light-dark(#000000,#FFFFFF);fontStyle=1;fontSize=9;fontColor=light-dark(#FF0000,#FFFFFF);" vertex="1" parent="1">
          <mxGeometry x="720" y="1442" width="150" height="26" as="geometry" />
        </mxCell>
        <mxCell id="Efuom8H8bGFNNsh-Mxzv-186" value="&lt;h2&gt;&lt;font style=&quot;color: light-dark(rgb(255, 0, 0), rgb(255, 255, 255));&quot;&gt;replace_fops&lt;/font&gt;&lt;/h2&gt;" style="rounded=1;whiteSpace=wrap;html=1;fillColor=#dae8fc;strokeColor=light-dark(#000000,#FFFFFF);fontStyle=1;fontSize=9;flipV=1;flipH=1;direction=east;fontColor=light-dark(#FF0000,#FFFFFF);" vertex="1" parent="1">
          <mxGeometry x="300" y="1480" width="120" height="30" as="geometry" />
        </mxCell>
        <mxCell id="Efuom8H8bGFNNsh-Mxzv-187" style="edgeStyle=orthogonalEdgeStyle;rounded=0;orthogonalLoop=1;jettySize=auto;html=1;entryX=0;entryY=0.5;entryDx=0;entryDy=0;" edge="1" source="Efuom8H8bGFNNsh-Mxzv-186" target="Efuom8H8bGFNNsh-Mxzv-188" parent="1">
          <mxGeometry relative="1" as="geometry" />
        </mxCell>
        <mxCell id="Efuom8H8bGFNNsh-Mxzv-188" value="&lt;h2&gt;&lt;font style=&quot;color: light-dark(rgb(255, 0, 0), rgb(255, 255, 255));&quot;&gt;替换file的f_ops=fops&lt;/font&gt;&lt;/h2&gt;" style="rounded=1;whiteSpace=wrap;html=1;fillColor=#fff2cc;strokeColor=light-dark(#000000,#FFFFFF);fontStyle=1;fontSize=9;fontColor=light-dark(#FF0000,#FFFFFF);" vertex="1" parent="1">
          <mxGeometry x="720" y="1482" width="150" height="26" as="geometry" />
        </mxCell>
        <mxCell id="Efuom8H8bGFNNsh-Mxzv-195" value="&lt;h2&gt;&lt;font style=&quot;color: light-dark(rgb(255, 0, 0), rgb(255, 255, 255));&quot;&gt;filp-&amp;gt;f_op-&amp;gt;open()&lt;/font&gt;&lt;/h2&gt;" style="rounded=1;whiteSpace=wrap;html=1;fillColor=#dae8fc;strokeColor=light-dark(#000000,#FFFFFF);fontStyle=1;fontSize=9;flipV=1;flipH=1;direction=east;fontColor=light-dark(#FF0000,#FFFFFF);" vertex="1" parent="1">
          <mxGeometry x="300" y="1520" width="120" height="30" as="geometry" />
        </mxCell>
        <mxCell id="Efuom8H8bGFNNsh-Mxzv-196" value="&lt;h2&gt;&lt;font style=&quot;color: light-dark(rgb(255, 0, 0), rgb(255, 255, 255));&quot;&gt;调用设备驱动的open函数&lt;/font&gt;&lt;/h2&gt;" style="rounded=1;whiteSpace=wrap;html=1;fillColor=#fff2cc;strokeColor=light-dark(#000000,#FFFFFF);fontStyle=1;fontSize=9;fontColor=light-dark(#FF0000,#FFFFFF);" vertex="1" parent="1">
          <mxGeometry x="710" y="1522" width="160" height="26" as="geometry" />
        </mxCell>
        <mxCell id="Efuom8H8bGFNNsh-Mxzv-197" style="edgeStyle=orthogonalEdgeStyle;rounded=0;orthogonalLoop=1;jettySize=auto;html=1;entryX=0;entryY=0.5;entryDx=0;entryDy=0;" edge="1" source="Efuom8H8bGFNNsh-Mxzv-195" target="Efuom8H8bGFNNsh-Mxzv-196" parent="1">
          <mxGeometry relative="1" as="geometry" />
        </mxCell>
        <mxCell id="Efuom8H8bGFNNsh-Mxzv-202" value="&lt;font style=&quot;font-size: 30px;&quot;&gt;🌻Make By Dakkk&lt;/font&gt;" style="html=1;shadow=0;dashed=0;shape=mxgraph.bootstrap.rrect;rSize=5;strokeColor=#1CA5B8;strokeWidth=1;fillColor=none;fontColor=#1CA5B8;whiteSpace=wrap;align=center;verticalAlign=middle;spacingLeft=0;fontStyle=1;fontSize=16;spacing=5;" vertex="1" parent="1">
          <mxGeometry x="140.0000000000001" y="1071.3" width="160" height="70.39" as="geometry" />
        </mxCell>
      </root>
    </mxGraphModel>
  </diagram>
</mxfile>
